<svg width="119" height="119" viewBox="0 0 119 119" fill="none" xmlns="http://www.w3.org/2000/svg">
<path d="M96.1929 94.6255C96.1929 94.6256 96.1929 94.6256 96.1929 94.6255C95.2319 87.884 92.4571 81.5249 88.1616 76.2204C84.1357 71.2495 78.9157 67.378 72.9922 64.9589C72.5733 64.7878 72.5643 64.1717 72.9732 63.9778C77.8668 61.6575 81.5767 57.3893 83.1601 52.1926C84.8688 46.5848 83.9156 40.5054 80.5698 35.6773C77.224 30.8494 71.8511 27.7976 65.9711 27.3864C60.091 26.9752 54.3455 29.2496 50.3605 33.5649C46.3754 37.8802 44.5854 43.7679 45.497 49.5589C46.3417 54.9254 49.4215 59.6686 53.9444 62.6472C54.3224 62.8961 54.2278 63.505 53.7891 63.6161C47.5866 65.1871 41.8781 68.2937 37.2002 72.6561C32.2082 77.3111 28.5752 83.2222 26.6855 89.7648C26.0463 91.9358 26.4343 94.2785 27.7397 96.1325C29.013 97.9512 31.0473 99.0978 33.2699 99.2478L88.3526 103.1C90.5737 103.26 92.7477 102.408 94.2603 100.784C95.8117 99.1299 96.5227 96.8642 96.1927 94.6256C96.1927 94.6255 96.1927 94.6255 96.1927 94.6256L96.1929 94.6255Z" fill="#022F36"/>
<path d="M94.0898 91.2061C94.0899 91.2061 94.0899 91.2061 94.0898 91.2061C93.1289 84.4646 90.354 78.1055 86.0586 72.8009C82.0326 67.8301 76.8126 63.9585 70.8892 61.5395C70.4702 61.3684 70.4613 60.7523 70.8702 60.5584C75.7637 58.2381 79.4737 53.9699 81.0571 48.7732C82.7658 43.1653 81.8126 37.086 78.4668 32.2579C75.121 27.43 69.7481 24.3781 63.868 23.9669C57.988 23.5558 52.2425 25.8302 48.2575 30.1455C44.2724 34.4608 42.4824 40.3485 43.3939 46.1395C44.2387 51.506 47.3185 56.2491 51.8414 59.2278C52.2194 59.4767 52.1248 60.0856 51.6861 60.1967C45.4836 61.7677 39.7751 64.8743 35.0971 69.2367C30.1052 73.8917 26.4722 79.8028 24.5824 86.3453C23.9433 88.5163 24.3313 90.8591 25.6367 92.7131C26.91 94.5317 28.9443 95.6784 31.1669 95.8283L86.2495 99.6801C88.4707 99.8402 90.6447 98.9885 92.1573 97.3646C93.7087 95.7105 94.4196 93.4448 94.0897 91.2061C94.0896 91.2061 94.0896 91.2061 94.0897 91.2061L94.0898 91.2061Z" fill="white"/>
<path fill-rule="evenodd" clip-rule="evenodd" d="M47.1302 29.1048C51.4321 24.4462 57.6321 21.9932 63.9746 22.4367C70.3171 22.8803 76.1152 26.1723 79.7271 31.3841C83.3395 36.5969 84.3696 43.1627 82.5239 49.2202C81.0187 54.1602 77.7352 58.321 73.37 60.9546C78.7484 63.4873 83.4975 67.2022 87.2501 71.8355L87.2502 71.8356C91.7197 77.3551 94.6078 83.9728 95.6079 90.9896C95.6066 90.9802 95.6051 90.9701 95.6033 90.9594C95.6049 90.969 95.6064 90.9791 95.6079 90.9896C95.6088 90.9955 95.6096 91.0016 95.6104 91.0079C95.9995 93.7014 95.141 96.4236 93.2777 98.4117C91.4473 100.376 88.82 101.403 86.1388 101.21L31.0632 97.3586C31.0622 97.3585 31.0612 97.3585 31.0602 97.3584C28.3778 97.1765 25.9208 95.7926 24.381 93.5945C22.8085 91.3602 22.3395 88.5352 23.1095 85.9158C25.0767 79.1077 28.8573 72.9576 34.0506 68.1148C38.411 64.0485 43.6313 61.0314 49.3099 59.2721C45.3537 56.0567 42.6813 51.4793 41.8783 46.3779C40.8936 40.1226 42.8275 33.7639 47.1302 29.1048ZM95.5223 90.6592C95.5184 90.6491 95.5142 90.6384 95.5097 90.6274C95.5137 90.6371 95.5179 90.6477 95.5223 90.6592ZM63.7606 25.497C58.343 25.1182 53.052 27.2139 49.384 31.186C45.7164 35.1574 44.0702 40.5742 44.9087 45.9009C45.6858 50.8373 48.5193 55.2035 52.6846 57.9467C54.1336 58.9009 53.8429 61.2325 52.0623 61.6835C46.1091 63.1914 40.6311 66.1728 36.1428 70.3584C31.3532 74.8247 27.8682 80.4955 26.0556 86.7709L26.0545 86.7747L26.0534 86.7785C25.5467 88.4994 25.8538 90.3576 26.8904 91.8299L26.8916 91.8316L26.8928 91.8333C27.8991 93.2706 29.5088 94.1791 31.2697 94.2979L31.2716 94.298L86.3594 98.1501C88.1196 98.277 89.8398 97.6017 91.0345 96.3191L91.0363 96.3172L91.0381 96.3153C92.2702 95.0015 92.8333 93.2042 92.5718 91.4297C92.5732 91.4392 92.5747 91.4494 92.5766 91.4603C92.5749 91.4505 92.5733 91.4404 92.5718 91.4297C92.5703 91.4201 92.569 91.4101 92.5677 91.3998C91.643 84.9419 88.9827 78.8498 84.8661 73.7661C81.0032 68.9966 75.994 65.2812 70.3088 62.9594C68.6084 62.265 68.645 59.9157 70.2126 59.1724C74.7193 57.0355 78.1329 53.1062 79.5894 48.326C81.1611 43.1678 80.2849 37.5749 77.2056 33.1315C74.1259 28.6875 69.1782 25.8758 63.7606 25.497ZM92.6565 91.7532C92.6603 91.7632 92.6644 91.7738 92.6689 91.7847C92.665 91.7751 92.6608 91.7645 92.6565 91.7532Z" fill="#022F36"/>
</svg>
