<svg width="119" height="119" viewBox="0 0 119 119" fill="none" xmlns="http://www.w3.org/2000/svg">
<path d="M52.5692 20.96C51.7996 20.9062 51.1004 21.4069 50.9036 22.1528L41.1468 59.1253C40.8896 60.0998 41.5828 61.0677 42.5882 61.138L54.0846 61.9419L43.2881 98.2481C42.7805 99.9548 45.0134 101.097 46.1005 99.687L82.8852 51.9706C83.6682 50.9548 83.0041 49.4762 81.7247 49.3869L69.4979 48.5328L79.9876 25.0404C80.4426 24.0214 79.7458 22.8604 78.6326 22.7826L52.5692 20.96Z" fill="#022F36"/>
<path d="M66.1746 47.2604C65.8985 47.2411 65.7257 46.9531 65.8385 46.7004L76.8004 22.1508C76.9132 21.8981 76.7404 21.6101 76.4643 21.5908L50.4009 19.7683C50.21 19.7549 50.0366 19.8791 49.9878 20.0641L40.231 57.0366C40.1672 57.2783 40.3391 57.5183 40.5885 57.5357L53.0924 58.4101C53.3468 58.4279 53.5192 58.6767 53.4465 58.9211L42.3621 96.1955C42.2363 96.6188 42.79 96.9021 43.0596 96.5524L79.8443 48.8359C80.0385 48.584 79.8738 48.2173 79.5565 48.1951L66.1746 47.2604Z" fill="white"/>
<path fill-rule="evenodd" clip-rule="evenodd" d="M48.8194 19.7559C49.0162 19.01 49.7154 18.5092 50.4849 18.5631L76.5484 20.3856C77.6616 20.4634 78.3584 21.6245 77.9034 22.6434L67.4136 46.1358L79.6405 46.9899C80.9199 47.0793 81.584 48.5579 80.801 49.5736L44.0163 97.2901C42.9291 98.7003 40.6963 97.5579 41.2038 95.8512L52.0003 59.5449L40.504 58.741C39.4986 58.6707 38.8054 57.7028 39.0625 56.7283L48.8194 19.7559ZM50.9848 21.0203L41.6487 56.3987L53.1765 57.2048C54.2022 57.2766 54.8975 58.28 54.6044 59.2656L44.7613 92.3658L77.9645 49.2951L66.0902 48.4657C64.9769 48.3879 64.2801 47.2268 64.7351 46.2078L75.2249 22.7154L50.9848 21.0203Z" fill="#022F36"/>
</svg>
