<svg width="536" height="486" viewBox="0 0 536 486" fill="none" xmlns="http://www.w3.org/2000/svg">
<path d="M268.735 309.674C268.871 309.874 269.113 310.06 269.131 310.293C270 317.394 271.032 324.512 270.514 331.702C270.429 332.868 269.977 334.026 269.546 335.146C269.346 335.678 268.869 336.352 268.409 336.465C266.257 336.991 264.986 338.68 263.37 339.928C262.275 340.774 261.18 341.225 259.784 340.887C259.288 340.757 258.759 340.683 258.253 340.746C256.736 340.935 255.486 340.382 254.582 339.255C253.057 337.383 251.404 335.564 250.246 333.477C246.302 326.384 242.329 319.298 238.761 312.02C229.81 293.768 222.822 274.712 216.975 255.255C210.303 233.032 204.035 210.664 197.579 188.364C195.282 180.412 192.925 172.475 190.598 164.531C190.397 163.873 190.207 163.197 189.908 162.583C189.222 161.158 188.458 159.738 187.743 158.321C187.55 158.312 187.327 158.311 187.134 158.302C185.972 161.166 184.581 163.952 183.706 166.879C182.199 171.903 181.006 177.03 179.718 182.103C179.609 182.562 179.71 183.089 179.705 183.582L179.691 183.475C178.865 186.182 177.905 188.863 178.375 191.777C178.132 192.21 177.851 192.622 177.589 193.045C177.551 194.039 177.502 195.052 177.464 196.046L177.461 195.92C176.896 197.411 176.369 198.924 177.027 200.532C176.883 200.921 176.738 201.311 176.613 201.711C176.272 203.377 175.92 205.062 175.579 206.729C175.714 206.754 175.848 206.78 175.982 206.806C176.279 206.056 176.557 205.296 176.854 204.546L176.766 204.571C176.494 207.614 176.212 210.676 175.941 213.718C175.163 222.694 174.374 231.688 173.577 240.653C173.503 241.404 173.246 242.127 173.074 242.873L173.152 242.867C173.024 241.903 172.867 240.948 172.739 239.985C172.672 239.972 172.594 239.978 172.508 239.954C172.389 241.844 172.278 243.763 172.158 245.653C172.197 246.244 172.266 246.828 172.305 247.42C171.787 248.343 171.666 249.265 172.308 250.195C171.971 256.223 171.634 262.251 171.315 268.289C171.218 271.331 171.11 274.391 171.013 277.433L170.99 277.296C170.8 280.459 170.503 283.636 170.409 286.803C170.009 298.592 169.676 310.393 169.324 322.184C169.318 322.503 169.371 322.805 169.442 323.563L170.224 322.169L170.146 322.175C170.168 323.327 170.344 324.515 170.154 325.647C169.387 330.146 168.639 334.655 167.604 339.102C166.606 343.396 164.274 346.843 160.191 348.911C159.815 349.096 159.444 349.358 159.112 349.642C153.817 354.398 146.052 352.962 141.281 348.401C137.295 344.603 134.231 340.134 131.348 335.518C121.915 320.464 114.324 304.512 107.923 287.94C99.5783 266.313 94.4535 243.894 90.9543 221.049C89.339 210.557 88.0556 200.003 86.9462 189.447C86.0375 180.962 85.4205 172.441 85.026 163.922C84.3943 150.663 84.2285 137.368 86.1664 124.164C86.7723 119.996 87.8582 115.899 88.9335 111.821C89.5011 109.663 89.962 109.327 91.921 108C91.674 110.734 90.2817 112.95 90.1509 115.477C91.5313 113.106 92.6857 110.609 94.4758 108.567C94.6936 108.664 94.9031 108.732 95.1208 108.83C94.8384 110.083 94.5853 111.328 94.2385 112.917C95.4081 111.716 95.4325 109.996 97.1017 109.669C98.2629 110.866 97.5532 111.954 97.2271 113.108C97.5585 112.65 97.9087 112.203 98.2507 111.726C98.366 111.741 98.4919 111.738 98.6072 111.753C98.5501 112.34 98.6059 112.991 98.4064 113.523C97.2808 116.631 96.8765 119.822 97.0571 123.119C97.1348 124.525 97.0254 125.999 96.7172 127.387C95.9601 130.677 96.1324 133.944 96.2706 137.316C96.3728 139.826 96.9598 142.31 96.7702 144.854C96.5936 147.331 96.7629 149.853 96.8945 152.354C97.2506 158.648 97.6656 164.924 98.0511 171.209C98.1156 172.286 98.3588 173.264 97.4856 174.335C96.9625 174.957 97.2167 176.314 97.3317 177.344C98.011 183.15 98.7197 188.948 99.439 194.726C99.5986 195.633 99.7582 196.54 99.899 197.437C100.526 201.306 101.153 205.175 101.799 209.055C101.945 210.251 102.08 211.467 102.226 212.663L102.192 212.545C102.214 213.301 102.148 214.081 102.296 214.833C103.217 220.031 104.176 225.251 105.156 230.433C105.248 230.93 105.516 231.378 105.707 231.832L105.712 231.736C106.022 233.346 106.361 234.948 106.67 236.559L106.648 236.422C107.058 238.56 107.458 240.716 107.868 242.854L108.523 243.717C108.358 245.952 109.598 251.156 110.762 253.098C111.168 254.713 111.582 256.357 111.988 257.972C112.065 258.585 112.172 259.19 112.249 259.803C112.606 260.623 112.974 261.424 113.35 262.254C113.441 262.577 113.532 262.901 113.623 263.224C113.745 264.11 113.848 264.985 113.97 265.871C113.994 265.96 114.019 266.048 114.044 266.136C114.5 267.309 114.957 268.481 115.424 269.635C115.698 270.161 115.973 270.686 116.247 271.212C116.289 271.756 116.36 272.291 116.448 273.282C116.812 272.545 116.952 272.252 117.081 271.977L117.012 272.013C117.376 272.688 117.839 273.319 118.085 274.027C123.877 290.802 131.231 306.869 139.959 322.296C142.455 326.719 145.108 331.081 147.903 335.325C149.31 337.452 151.204 339.284 153.264 341.703C153.769 340.451 154.152 339.725 154.371 338.981C155.927 333.563 156.61 327.977 156.908 322.372C157.573 309.098 158.16 295.829 158.613 282.535C159.498 256.38 160.826 230.275 164.352 204.315C166.102 191.402 168.294 178.539 172.008 166.01C173.371 161.375 174.887 156.777 177.503 152.647C178.329 151.352 179.278 150.102 180.339 148.963C181.776 147.417 183.541 146.921 185.726 147.132C188.412 147.377 191.027 147.705 193.487 148.839C196.533 150.251 198.962 152.234 200.404 155.446C202.546 160.191 204.61 164.941 206.239 169.893C206.595 170.935 207.168 171.9 207.554 172.934C207.914 173.88 208.321 174.876 208.342 175.854C208.367 176.957 208.827 177.637 209.601 178.245C209.19 179.55 209.381 180.623 210.744 181.239C211.102 182.63 211.141 184.237 211.871 185.364C212.708 186.652 212.186 188.068 212.722 189.186C213.329 190.444 212.691 192.067 213.866 192.974C215.079 193.902 214.848 195.284 215.374 196.421L214.501 196.476C214.548 196.701 214.597 197.1 214.683 197.123C214.943 197.145 215.228 197.033 215.512 196.969C215.969 198.935 217.06 200.786 216.407 202.921C216.336 203.179 216.512 203.748 216.711 203.835C218.39 204.505 218.243 206.181 218.625 207.485C223.559 223.581 228.347 239.718 233.389 255.8C235.803 263.545 238.639 271.156 241.288 278.836C241.543 279.573 241.768 280.319 241.887 281.079C241.917 281.245 241.472 281.465 241.24 281.657C241.073 281.117 240.913 280.607 240.746 280.067C240.618 280.119 240.479 280.19 240.351 280.242C240.668 280.692 240.993 281.172 241.31 281.622C241.133 283.48 242.168 284.903 242.975 286.421L242.94 286.352C243.311 287.278 243.691 288.235 244.081 289.172C244.295 289.762 244.479 290.361 244.692 290.952C244.831 290.881 244.97 290.81 245.09 290.729C244.727 290.228 244.375 289.708 243.993 289.197C244.095 288.883 244.226 288.56 244.465 287.827C247.923 295.787 251.25 303.45 254.577 311.114C255.408 309.897 255.067 308.739 254.976 307.623C254.091 296.624 253.002 285.634 252.321 274.626C251.447 260.562 251.396 246.489 252.234 232.42C253.255 215.159 255.13 198.006 259.339 181.198C260.967 174.68 263.206 168.309 265.311 161.911C265.979 159.883 267.057 157.962 268.133 156.089C270.108 152.615 272.484 150.06 277.184 150.865C281.701 151.643 285.687 153.013 288.505 156.775C290.159 158.991 291.586 161.303 292.453 163.994C293.142 166.164 294.539 168.088 295.287 170.242C297.333 176.171 299.329 182.146 301.13 188.16C304.273 198.668 307.297 209.209 310.263 219.766C312.411 227.411 314.335 235.105 316.424 242.767C318.268 249.499 320.24 256.179 322.083 262.911C322.364 263.911 323.214 264.957 322.3 266.054L322.389 266.03L320.024 258.857L319.535 258.978C319.801 260.094 320.018 261.206 320.343 262.305C322.455 269.485 324.45 276.698 326.76 283.791C328.529 289.243 330.711 294.579 332.735 299.975C332.847 300.261 333.164 300.489 333.394 300.742L333.361 300.624C334.499 304.73 335.973 308.679 338.176 312.343L338.143 312.225C338.519 313.056 338.866 313.894 339.242 314.725L339.19 314.596C339.566 315.427 339.913 316.265 340.289 317.096L340.227 316.986C340.475 317.646 340.724 318.306 340.973 318.966L340.881 318.865C341.951 320.753 343.011 322.661 344.099 324.56C344.506 325.556 344.884 326.561 345.29 327.557C345.671 328.291 346.052 329.025 346.451 329.769C346.558 329.755 346.676 329.722 346.783 329.708C346.791 329.34 346.809 328.955 346.836 328.598C348.336 331 349.817 333.392 351.306 335.814C351.481 335.812 351.665 335.792 351.839 335.791C352.021 335.026 352.28 334.255 352.376 333.467C353.272 324.458 354.216 315.452 354.977 306.417C356.251 291.528 357.611 276.662 360.24 261.963C361.767 253.507 363.64 245.096 365.349 236.668C365.529 235.729 365.758 234.792 366.883 234.508L366.806 234.514C366.99 235.112 367.423 235.752 367.32 236.289C366.327 241.676 365.458 247.108 364.159 252.422C362.174 260.547 361.67 268.859 360.521 277.082C359.302 285.785 358.804 294.571 357.978 303.321C357.46 308.702 356.893 314.081 356.451 319.456C356.256 321.922 356.283 324.389 356.613 326.978C356.809 326.32 357.139 325.688 357.19 325.023C357.894 318.606 358.636 312.211 359.214 305.798C359.807 299.27 360.043 292.715 360.79 286.223C361.866 277.069 363.05 267.9 364.655 258.819C366.142 250.39 368.195 242.055 370.122 233.725C371.146 229.297 372.401 224.899 373.635 220.538C374.334 218.057 375.205 215.624 376.001 213.147C376.307 212.205 376.557 211.23 376.844 210.277C376.683 210.211 376.511 210.164 376.35 210.099C374.907 213.375 373.482 216.663 371.991 219.937C371.646 220.685 371.158 221.377 370.625 222.019C370.203 222.55 369.742 222.885 370.105 223.783C370.391 224.464 369.991 225.354 368.636 224.767C369.094 223.29 369.511 221.84 369.977 220.392C371.466 215.754 372.595 210.963 375.194 206.775C376.358 204.877 377.676 203.016 379.277 201.487C380.402 200.409 382.044 199.647 383.568 199.314C388.709 198.187 393.856 198.327 398.913 199.952C401.599 200.816 403.949 202.234 405.678 204.492C407.134 206.399 408.619 208.298 409.905 210.333C413.2 215.626 416.839 220.616 421.362 224.913C423.721 227.154 424.463 227.199 427.285 225.613C430.446 223.82 432.668 221.055 434.833 218.257C436.772 215.73 438.654 213.17 440.491 210.56C445.513 203.422 450.481 201.677 460.164 203.621C463.795 204.346 466.83 206.396 469.814 208.493C471.573 209.728 473.361 210.955 475.141 212.152C476.781 213.246 478.566 213.728 480.548 213.552C484.151 213.222 487.771 212.95 491.391 212.679C494.157 212.473 496.92 212.538 499.58 213.535C501.251 214.176 501.334 214.47 500.773 216.881C495.377 217.889 489.805 218.947 484.205 219.965C482.605 220.256 480.954 220.418 479.321 220.591C475.627 220.995 472.014 220.503 468.709 218.845C465.328 217.146 462.066 215.191 458.876 213.152C455.659 211.074 455.909 210.892 453.25 213.908C450.746 216.737 448.519 219.822 446.135 222.744C445.612 223.367 444.892 223.855 444.248 224.385C444.118 224.485 443.893 224.532 443.848 224.656C443.013 227.159 440.621 228.244 438.854 229.803C437.44 231.041 435.469 231.817 433.617 232.337C430.735 233.147 427.741 233.671 424.768 234.157C422.429 234.528 420.111 234.069 417.906 233.277C413.427 231.68 409.536 229.124 406.612 225.377C403.232 221.028 400.085 216.487 396.876 212.01C395.814 210.547 394.894 208.966 393.782 207.549C391.831 205.067 390.222 205.154 388.53 207.771C387.516 209.357 386.642 211.046 385.722 212.685C385.532 213.024 385.352 213.344 384.888 213.554C384.912 213.245 384.955 212.948 385.02 212.216C381.468 219.337 379.571 226.644 377.08 233.816C377.042 233.399 376.889 232.966 376.993 232.603C377.713 229.688 378.519 226.797 379.239 223.882C379.429 223.146 379.35 222.359 379.406 221.598C380.029 220.313 380.622 219.036 381.234 217.769C381.035 217.682 380.844 217.625 380.645 217.538C380.261 218.883 379.848 220.236 379.465 221.582C377.976 225.204 376.67 228.855 376.019 232.75C375.711 234.534 375.143 236.296 372.977 236.714L373.065 236.69C373.075 235.878 372.942 235.011 373.115 234.216C373.484 232.368 373.988 230.545 374.424 228.709C374.522 228.269 374.478 227.773 374.013 227.19C373.493 228.558 372.925 229.923 372.461 231.323C372 232.674 371.576 234.046 371.258 235.452C370.874 237.194 370.634 238.991 370.299 240.735C369.603 244.357 368.84 247.966 368.174 251.58C367.701 254.188 367.305 256.789 366.929 259.402C366.868 259.863 367.105 260.367 367.308 261.373C367.632 260.267 367.863 259.678 367.99 259.056C368.665 255.868 369.243 252.675 369.966 249.49C370.161 248.658 370.796 247.924 371.303 247.02C370.327 244.391 370.735 243.135 373.175 241.656C373.27 241.883 373.444 242.104 373.405 242.305C373.022 244.84 372.659 247.385 372.19 249.896C372.108 250.395 371.662 250.838 371.36 251.288C371.254 251.476 370.972 251.714 371.026 251.794C372.275 254.378 370.303 256.788 370.599 259.307C370.687 260.075 370.795 260.854 370.903 261.632C370.485 262.686 369.981 263.716 369.697 264.795C369.614 265.12 370.113 265.598 370.336 265.996C369.321 266.788 369.152 267.709 369.864 268.777C369.196 269.616 368.881 270.529 369.353 271.586C368.691 274.088 367.837 276.581 368.396 279.248C369.24 276.774 369.584 274.218 369.294 271.603C369.474 270.664 369.636 269.714 369.806 268.794C369.957 267.863 370.126 266.943 370.277 266.012C370.473 264.561 370.668 263.11 370.844 261.649C371.344 259.7 371.854 257.732 372.353 255.784C372.536 255.812 372.729 255.821 372.911 255.849C372.902 256.438 372.998 257.062 372.893 257.647C370.969 268.927 369.623 280.283 368.689 291.698C368.625 292.43 368.754 293.171 368.805 293.918L368.772 293.801C368.282 295.556 367.647 297.305 368.537 299.118L368.294 299.947C367.718 301.68 367.171 303.404 367.769 305.251L367.766 305.125C367.586 307.253 367.407 309.382 367.238 311.492L367.205 311.374C366.926 313.769 366.561 316.14 366.408 318.531C366.322 319.919 365.794 321.257 366.823 322.776C367.438 323.667 366.793 325.434 366.711 326.949L365.524 326.283C365.545 327.657 365.474 328.93 365.578 330.202C366.019 335.329 364.547 340.026 362.234 344.499C361.906 345.083 361.379 345.58 360.847 345.999C359.078 347.384 357.31 348.769 355.479 350.045C352.537 352.109 347.488 351.925 344.558 349.512C343.032 348.259 341.513 346.862 340.48 345.217C337.063 339.831 333.627 334.435 330.618 328.808C324.682 317.673 320.129 305.928 315.931 294.035C307.316 269.582 300.987 244.455 294.323 219.437C289.816 202.492 285.004 185.647 280.233 168.776C279.629 166.629 279.191 164.278 277.137 162.332C275.932 165.495 274.641 168.411 273.675 171.411C270.818 180.384 268.879 189.575 267.477 198.869C267.319 199.944 267.507 201.065 267.531 202.169L267.441 202.242C267.08 203.723 266.603 205.19 266.358 206.687C266.097 208.299 266.029 209.92 266.109 211.674C266.312 211.268 266.526 210.843 266.71 210.427L267.043 210.539C266.906 211.799 266.749 213.049 266.66 214.312C266.211 220.054 265.791 225.788 265.361 231.54C265.299 232.224 265.189 232.905 265.089 233.568C264.83 233.323 264.59 233.089 264.258 232.754C264.039 233.894 264.708 233.453 265.062 233.528C265.038 236.263 264.984 239.007 264.997 241.764C265.052 249.077 265.138 256.383 265.204 263.677C265.207 264.422 265.055 265.179 264.98 265.929L265.058 265.923L263.928 265.289C264.248 266.484 264.487 267.337 264.708 268.179C264.714 268.653 264.721 269.127 264.746 269.612C264.73 270.743 264.725 271.855 264.691 272.975L264.669 272.838C264.761 274.129 264.884 275.411 264.977 276.702L264.954 276.566C264.616 278.58 264.58 280.541 265.642 282.401C265.791 284.738 265.94 287.076 266.089 289.414C265.584 291.682 265.914 293.873 266.603 296.043L266.581 295.907C266.579 296.748 266.47 297.604 266.565 298.449C267.372 305.838 268.218 313.199 269.035 320.568C269.242 322.319 269.419 324.077 269.595 325.836C269.976 325.158 270.054 324.533 269.988 323.902C269.658 320.298 269.279 316.692 268.978 313.08C268.895 311.993 268.978 310.875 268.991 309.793L268.932 309.81L268.735 309.674ZM257.553 200.927C257.918 200.364 258.292 199.831 258.658 199.268C258.545 199.205 258.413 199.131 258.3 199.067C258.058 199.675 257.816 200.282 257.564 200.908C257.496 201.91 257.437 202.942 257.37 203.945C257.951 202.909 258.562 201.865 257.564 200.908L257.553 200.927ZM168.2 309.713C168.137 310.619 168.055 311.515 167.993 312.421C168.226 312.403 168.44 312.374 168.662 312.375C168.463 311.496 168.282 310.626 168.082 309.746C168.928 308.24 169.31 306.72 168.235 305.151C168.948 304.585 169.134 303.946 168.351 302.913C168.326 303.84 168.315 304.477 168.312 305.145C168.268 306.68 168.234 308.197 168.189 309.732L168.2 309.713ZM273.688 168.124C272.191 169.29 271.745 170.922 271.897 172.815L273.659 168.132C274.448 165.975 275.228 163.836 275.999 161.669C274.766 163.379 273.942 165.245 273.203 167.134C273.125 167.362 273.511 167.777 273.669 168.113L273.688 168.124ZM318.843 291.805C318.4 292.3 318.437 292.734 318.954 293.107C319.19 293.04 319.396 292.983 319.631 292.917C319.349 292.536 319.076 292.184 318.794 291.803C318.551 290.428 318.288 289.042 317.944 287.14C317.339 287.865 316.849 288.209 316.864 288.49C316.99 289.899 317.442 291.168 318.853 291.787L318.843 291.805ZM320.289 296.333L319.836 294.89C319.697 294.96 319.548 295.05 319.39 295.11C319.71 295.512 320.058 295.906 320.377 296.308C319.673 298.489 321.212 300.071 321.828 302.373C322.141 300.27 321.486 297.995 320.289 296.333ZM168.908 290.493C169.557 288.455 169.316 286.413 169.008 284.357C168.871 286.411 168.011 288.429 168.967 290.477C167.905 293.25 168.795 296.077 168.776 298.891C168.688 296.092 169.749 293.319 168.908 290.493ZM160.974 287.947C161.962 287.511 161.909 286.812 161.552 285.77C160.838 286.558 160.701 287.199 161.1 287.944C160.989 288.451 160.773 288.924 160.768 289.417C160.628 293.771 160.564 298.12 160.423 302.475C160.202 308.914 159.981 315.354 159.633 321.797C159.466 325.096 159.094 328.405 158.82 331.719C159.313 331.501 159.453 331.207 159.478 330.899C159.99 326.456 160.755 322.006 160.948 317.557C161.362 308.525 161.486 299.479 161.668 290.417C161.689 289.587 162.168 288.469 160.955 287.937L160.974 287.947ZM255.625 282.153C255.625 282.153 255.371 282.209 255.235 282.231C255.263 283.064 255.242 283.895 255.318 284.73C255.58 288.146 255.997 291.551 256.133 294.971C256.481 303.043 257.724 311.023 258.977 318.984C259.075 319.559 259.387 320.106 259.611 320.677C258.754 308.084 257.427 295.623 256.078 283.2C256.038 282.83 255.773 282.508 255.625 282.153ZM261.836 182.971C264.236 174.46 266.883 166.038 270.86 158.115C270.934 157.983 270.924 157.78 270.894 157.614C270.888 157.536 270.783 157.502 270.729 157.422C267.71 160.285 262.053 176.231 261.836 182.971ZM180.124 154.243C177.297 156.544 172.429 169.54 172.618 174.278C175.123 167.609 177.617 160.96 180.124 154.243ZM260.454 189.626C260.215 189.566 259.966 189.525 259.727 189.465C259.332 191.845 258.927 194.243 258.581 196.624C258.566 196.74 258.974 196.895 259.144 196.99C259.606 194.401 260.03 192.013 260.464 189.607L260.454 189.626ZM184.831 160.154L184.326 159.995L181.062 169.383C181.224 169.449 181.395 169.496 181.557 169.562C182.645 166.432 183.733 163.303 184.821 160.173L184.831 160.154ZM179.149 166.129C178.977 166.082 178.816 166.017 178.644 165.97C177.878 168.438 177.141 170.897 176.375 173.365C176.566 173.423 176.756 173.48 176.947 173.538L179.13 166.119L179.149 166.129ZM321.828 285.605C321.643 285.625 321.467 285.674 321.282 285.694C320.946 287.264 322.074 288.343 322.818 289.578C322.494 288.257 322.152 286.926 321.828 285.605ZM262.053 303.62C261.87 301.783 261.696 299.976 261.513 298.14C261.328 298.16 261.173 298.172 260.988 298.192C260.783 300.058 260.898 301.882 262.053 303.62ZM165.363 298.882C165.197 298.913 165.031 298.943 164.865 298.974C164.818 300.78 164.789 302.597 164.741 304.403C164.896 304.391 165.06 304.409 165.215 304.397L165.363 298.882ZM318.07 252.013C317.952 253.929 318.332 255.165 319.207 255.723C318.779 254.368 318.43 253.181 318.07 252.013ZM323.366 278.938C323.532 278.907 323.698 278.877 323.863 278.846L322.482 274.776C322.325 274.836 322.167 274.896 322.02 274.938C322.459 276.274 322.898 277.61 323.347 278.927L323.366 278.938ZM255.28 275.222C254.929 276.643 255.106 277.857 255.812 278.864C255.614 277.54 255.476 276.595 255.28 275.222ZM325.846 283.08C325.464 283.187 325.082 283.294 324.718 283.412C325.116 284.602 325.532 285.801 325.94 286.972C326.039 286.928 326.157 286.895 326.245 286.87C326.112 285.607 325.979 284.343 325.846 283.08ZM179.552 164.176L179.772 164.225C180.032 163.232 180.303 162.22 180.563 161.226C180.459 161.192 180.325 161.167 180.22 161.133C179.997 162.147 179.774 163.161 179.562 164.157L179.552 164.176ZM161.266 284.074C161.451 284.054 161.617 284.023 161.801 284.003C161.796 283.306 161.791 282.61 161.767 281.903L161.311 281.919C161.287 282.624 161.271 283.358 161.247 284.063L161.266 284.074ZM98.7771 246.296C98.7771 246.296 98.5653 246.276 98.4688 246.271C98.4715 246.62 98.4342 246.995 98.5145 247.337C98.6113 247.739 98.8257 248.107 98.9814 248.491C99.1684 248.423 99.3743 248.365 99.5719 248.278C99.323 247.618 99.0554 246.947 98.8065 246.288L98.7771 246.296ZM171.491 177.609C171.671 177.685 171.851 177.761 172.042 177.819C172.177 177.226 172.32 176.662 172.455 176.069C172.35 176.035 172.245 176.001 172.14 175.967C171.93 176.518 171.72 177.068 171.51 177.619L171.491 177.609ZM374.611 224.801C374.764 224.838 374.946 224.866 375.099 224.902C375.205 224.317 375.281 223.741 375.386 223.156C375.329 223.124 375.252 223.13 375.195 223.098C375.004 223.66 374.813 224.221 374.63 224.812L374.611 224.801ZM168.739 194.294C168.604 194.268 168.5 194.234 168.365 194.208L167.97 195.794C168.123 195.831 168.276 195.867 168.411 195.893C168.514 195.356 168.635 194.83 168.739 194.294ZM267.557 190.74L267.24 190.686C267.143 191.3 267.016 191.922 266.919 192.537L267.255 192.601C267.352 191.987 267.449 191.373 267.557 190.74ZM99.9068 253.197C100.083 253.147 100.251 253.068 100.428 253.019C100.291 252.645 100.165 252.252 100.028 251.878L99.7739 251.933C99.8119 252.351 99.8688 252.779 99.8963 253.215L99.9068 253.197ZM314.523 280.439C314.681 280.379 314.849 280.3 315.006 280.24C314.861 279.836 314.706 279.452 314.561 279.048L314.117 279.22C314.262 279.624 314.378 280.035 314.523 280.439ZM89.166 182.272C88.8425 182.363 88.5296 182.435 88.2061 182.526C88.5065 182.917 88.8257 183.319 89.3369 183.953C89.2562 183.214 89.2017 182.738 89.166 182.272ZM327.892 292.055C328.012 291.974 328.132 291.893 328.252 291.811L327.721 290.77C327.721 290.77 327.524 290.858 327.444 290.912C327.599 291.296 327.766 291.662 327.902 292.036L327.892 292.055ZM170.643 184.018C170.479 184.001 170.345 183.975 170.181 183.957C170.155 184.314 170.109 184.66 170.082 185.016L170.428 185.062C170.503 184.708 170.578 184.354 170.643 184.018ZM118.909 279.84C118.909 279.84 119.107 279.753 119.195 279.728C119.05 279.324 118.876 278.929 118.731 278.526L118.434 278.657C118.59 279.041 118.754 279.455 118.909 279.84ZM173.701 226.357C173.701 226.357 173.894 226.366 173.991 226.371C173.99 225.974 174.019 225.569 174.019 225.173C173.923 225.168 173.826 225.164 173.7 225.167C173.7 225.564 173.701 225.96 173.691 226.376L173.701 226.357ZM319.806 279.764C319.63 279.813 319.443 279.882 319.248 279.921C319.395 280.276 319.553 280.612 319.7 280.967C319.877 280.918 320.064 280.849 320.24 280.8C320.082 280.463 319.954 280.119 319.796 279.782L319.806 279.764ZM261.698 203.03C261.698 203.03 261.872 203.029 261.949 203.023C262.014 202.688 262.089 202.334 262.153 201.998C262.019 201.972 261.904 201.957 261.759 201.95C261.732 202.307 261.724 202.674 261.698 203.03ZM266.046 305.861C265.909 305.884 265.765 305.877 265.628 305.899C265.676 306.52 265.742 307.152 265.79 307.773C265.926 307.751 266.071 307.758 266.207 307.735C266.16 307.114 266.093 306.482 266.056 305.842L266.046 305.861ZM247.073 297.168C247.201 297.116 247.311 297.053 247.439 297.001C247.281 296.665 247.134 296.31 246.976 295.974C246.877 296.017 246.789 296.042 246.69 296.086C246.808 296.449 246.955 296.804 247.073 297.168ZM262.027 307.99C262.027 307.99 262.279 307.982 262.416 307.96C262.376 307.368 262.337 306.776 262.289 306.155C262.163 306.159 262.008 306.171 261.882 306.174C261.922 306.766 261.98 307.368 262.019 307.96L262.027 307.99ZM322.699 303.556C322.609 303.629 322.489 303.71 322.398 303.783C322.653 304.124 322.897 304.484 323.151 304.825C323.271 304.744 323.372 304.652 323.481 304.589C323.227 304.248 322.972 303.907 322.718 303.566L322.699 303.556ZM262.843 195.475L263.191 195.472C263.17 195.113 263.156 194.784 263.135 194.425C263.038 194.42 262.931 194.434 262.835 194.43C262.837 194.778 262.84 195.126 262.824 195.464L262.843 195.475ZM264.88 220.57C264.88 220.57 265.073 220.58 265.151 220.574C265.18 220.169 265.198 219.783 265.227 219.378C265.131 219.373 265.005 219.377 264.909 219.373C264.909 219.769 264.899 220.184 264.88 220.57ZM265.851 214.031C265.685 214.062 265.538 214.103 265.383 214.115C265.4 214.57 265.398 215.015 265.415 215.471L265.734 215.476C265.775 215.004 265.809 214.503 265.851 214.031ZM174.463 220.146C174.463 220.146 174.289 220.147 174.203 220.124C174.184 220.51 174.166 220.896 174.129 221.271C174.225 221.276 174.322 221.28 174.418 221.285C174.436 220.899 174.444 220.532 174.444 220.136L174.463 220.146ZM161.795 279.293C161.668 279.122 161.532 278.922 161.405 278.752C161.331 278.884 161.217 279.043 161.21 279.187C161.214 279.313 161.352 279.465 161.433 279.585C161.534 279.493 161.643 279.431 161.795 279.293ZM315.399 242.167L314.664 242.373C314.73 242.608 314.815 242.854 314.891 243.071C315.127 243.005 315.391 242.93 315.626 242.864C315.542 242.618 315.475 242.383 315.38 242.156L315.399 242.167ZM316.825 247.525C316.63 247.564 316.424 247.621 316.247 247.671C316.395 248.026 316.513 248.39 316.66 248.745C316.778 248.712 316.906 248.66 317.023 248.627C316.954 248.266 316.895 247.886 316.844 247.535L316.825 247.525ZM104.86 253.55C104.86 253.55 104.673 253.618 104.585 253.643C104.678 253.918 104.79 254.204 104.884 254.479L105.169 254.367C105.057 254.082 104.964 253.806 104.842 253.539L104.86 253.55ZM324.261 292.964C324.261 292.964 324.025 293.03 323.908 293.063C323.947 293.259 323.994 293.483 324.062 293.67C324.062 293.67 324.207 293.677 324.255 293.68C324.256 293.457 324.249 293.205 324.25 292.983L324.261 292.964ZM317.112 256.677C317.112 256.677 316.885 256.772 316.756 256.824C316.844 257.022 316.902 257.228 316.989 257.425C317.077 257.401 317.146 257.365 317.235 257.34C317.206 257.126 317.159 256.902 317.13 256.687L317.112 256.677ZM366.432 263.507C366.625 263.516 366.818 263.526 367.011 263.535C366.96 263.184 366.939 262.825 366.888 262.475C366.792 262.47 366.695 262.466 366.599 262.461C366.534 262.796 366.489 263.142 366.414 263.497L366.432 263.507ZM264.546 229.374C264.546 229.374 264.313 229.391 264.216 229.387C264.221 229.687 264.237 229.968 264.261 230.279C264.368 230.264 264.493 230.261 264.59 230.265C264.585 229.965 264.569 229.684 264.546 229.374ZM313.291 235.287C313.291 235.287 313.168 235.242 313.12 235.24C313.131 235.395 313.143 235.55 313.166 235.687C313.174 235.716 313.279 235.75 313.375 235.755C313.345 235.589 313.322 235.453 313.291 235.287ZM257.552 206.004C257.436 205.989 257.321 205.973 257.197 205.929C257.194 206.199 257.18 206.489 257.177 206.759C257.244 206.772 257.311 206.785 257.389 206.779C257.44 206.511 257.492 206.243 257.543 205.974L257.552 206.004Z" fill="#FCE5B5"/>
<path d="M518.363 223.757C514.563 221.525 513.476 219.181 514.001 215.29C514.308 213.109 514.898 213.118 517.193 212.648C519.351 212.2 521.396 212.927 523.639 212.328C526.176 211.647 529.198 211.956 531.734 213.528C533.715 214.764 534.396 216.905 533.052 218.901C531.452 221.222 529.279 222.975 526.465 223.575C524.462 224.011 522.36 224.094 520.305 224.179C519.491 224.218 518.658 223.849 518.304 223.774L518.363 223.757Z" fill="#FCE5B5"/>
<path d="M171.298 268.279C171.635 262.251 171.972 256.223 172.29 250.185C172.479 249.672 172.668 249.159 172.857 248.645L172.769 248.67C172.693 252.071 172.666 255.473 172.552 258.852C172.398 263.893 172.195 268.931 171.992 273.97C171.96 274.645 171.794 275.295 171.684 275.976L171.761 275.97C171.645 275.162 171.451 274.359 171.413 273.545C171.333 271.791 171.311 270.02 171.279 268.269L171.298 268.279Z" fill="#FCE5B5"/>
<path d="M101.726 209.012C101.099 205.143 100.472 201.274 99.8265 197.394C99.6774 196.468 99.5178 195.561 99.3665 194.684C99.4884 194.158 99.5914 193.621 99.8398 192.473C100.165 193.349 100.336 193.618 100.389 193.921C101.165 199.334 101.951 204.73 102.697 210.152C102.77 210.639 102.659 211.146 102.625 211.647L102.703 211.641L101.756 209.004L101.726 209.012Z" fill="#FCE5B5"/>
<path d="M265.911 289.289C265.762 286.951 265.613 284.614 265.464 282.276C265.238 280.341 265.022 278.387 264.776 276.441L264.799 276.577C264.997 275.871 265.195 275.165 265.404 274.44L265.316 274.465C265.516 276.138 265.765 277.813 265.936 279.494C266.327 283.43 266.7 287.354 267.044 291.287C267.12 292.122 266.992 292.967 266.942 293.806L267.02 293.8C266.647 292.303 266.284 290.787 265.93 289.3L265.911 289.289Z" fill="#FCE5B5"/>
<path d="M333.259 300.764C333.039 299.699 332.908 298.61 332.541 297.587C331.53 294.666 330.45 291.781 329.369 288.896C329.069 288.108 328.621 287.361 328.243 286.579C328.518 286.486 328.785 286.363 329.06 286.27C329.256 286.628 329.481 286.977 329.607 287.37C331.328 292.026 333.067 296.693 334.748 301.377C334.909 301.839 334.873 302.389 334.917 302.884L335.025 302.87C334.421 302.135 333.818 301.4 333.197 300.655L333.23 300.772L333.259 300.764Z" fill="#FCE5B5"/>
<path d="M372.357 254.894C372.946 250.271 373.662 246.214 374.867 242.259C375.397 244.315 373.774 252.766 372.357 254.894Z" fill="#FCE5B5"/>
<path d="M179.676 183.59C180.07 182.226 180.494 180.854 180.888 179.49C181.222 178.365 181.567 177.221 181.92 176.107L181.851 176.142C181.851 176.142 181.989 176.294 181.976 176.361C181.016 180.85 180.048 185.31 179.089 189.8L179.166 189.794C179.217 188.732 179.258 187.69 179.357 186.631C179.426 185.58 179.574 184.524 179.673 183.465L179.687 183.572L179.676 183.59Z" fill="#FCE5B5"/>
<path d="M170.156 322.156C170.298 317.976 170.47 313.787 170.612 309.606C170.626 309.317 170.688 309.03 170.972 308.744C170.806 313.232 171.344 317.745 170.078 322.162L170.156 322.156Z" fill="#FCE5B5"/>
<path d="M368.152 299.892L368.395 299.062C368.47 297.296 368.556 295.511 368.63 293.745L368.663 293.863C369.02 292.081 369.384 290.329 369.74 288.547L369.662 288.553C369.763 289.08 369.979 289.623 369.934 290.143C369.544 294.456 369.097 298.738 368.659 303.05C368.487 301.987 368.305 300.944 368.133 299.881L368.152 299.892Z" fill="#FCE5B5"/>
<path d="M108.421 243.683C108.213 243.392 107.975 243.11 107.766 242.82C107.988 242.424 108.21 242.028 108.432 241.633L108.363 241.668C109.204 245.113 110.044 248.557 110.885 252.001L110.963 251.995C110.633 251.215 110.222 250.49 109.981 249.685C109.408 247.704 108.924 245.699 108.41 243.701L108.421 243.683Z" fill="#FCE5B5"/>
<path d="M105.602 231.798C105.875 231.753 106.402 231.653 106.41 231.682C107.092 235.012 107.725 238.34 108.359 241.668L108.428 241.633C108.119 240.815 107.792 239.987 107.493 239.151C107.17 238.227 106.847 237.302 106.524 236.378L106.546 236.514C106.929 234.772 106.395 233.209 105.588 231.691L105.583 231.787L105.602 231.798Z" fill="#FCE5B5"/>
<path d="M116.125 271.216C115.85 270.69 115.576 270.164 115.301 269.639C115.229 268.31 115.059 267.026 113.922 266.14C113.897 266.051 113.872 265.963 113.847 265.875C114.003 265.244 114.159 264.613 114.315 263.983L114.246 264.018C115.123 266.69 116.001 269.363 116.898 272.046L116.967 272.01C116.689 271.755 116.411 271.5 116.133 271.245L116.125 271.216Z" fill="#FCE5B5"/>
<path d="M266.942 293.806C267.264 296.761 267.587 299.717 267.91 302.672L267.969 302.655C267.73 301.58 267.51 300.515 267.261 299.459C266.981 298.237 266.682 297.004 266.392 295.801L266.414 295.937C266.612 295.231 266.811 294.525 266.99 293.808L266.912 293.814L266.942 293.806Z" fill="#FCE5B5"/>
<path d="M334.957 302.857C336.136 305.699 337.315 308.54 338.513 311.392L338.601 311.368C338.086 310.608 337.384 309.917 337.105 309.091C336.422 306.998 334.843 305.221 335.064 302.843L334.957 302.857Z" fill="#FCE5B5"/>
<path d="M171.496 297.667C171.432 300.207 171.368 302.748 171.305 305.288C171.131 305.289 170.938 305.28 170.763 305.281C170.827 302.741 170.88 300.22 170.925 297.669C171.099 297.667 171.292 297.677 171.477 297.656L171.496 297.667Z" fill="#FCE5B5"/>
<path d="M111.884 257.939C111.478 256.323 111.064 254.679 110.657 253.064C110.762 252.701 110.866 252.339 110.971 251.977L110.893 251.982C111.978 253.756 112.574 255.651 112.319 257.737C112.181 257.808 112.042 257.878 111.884 257.939Z" fill="#FCE5B5"/>
<path d="M374.988 240.989C375.45 239.019 375.912 237.049 376.363 235.097C376.916 237.29 376.29 239.243 375.531 241.169L374.997 241.018L374.988 240.989Z" fill="#FCE5B5"/>
<path d="M338.496 311.381C339.477 313.517 340.458 315.653 341.43 317.759L341.527 317.764C341.056 317.5 340.566 317.225 340.095 316.96L340.158 317.07C339.782 316.239 339.435 315.401 339.059 314.571L339.111 314.699C338.735 313.868 338.388 313.03 338.012 312.199L338.045 312.317C338.225 311.997 338.405 311.677 338.595 311.338L338.507 311.362L338.496 311.381Z" fill="#FCE5B5"/>
<path d="M177.54 193.042C177.783 192.609 178.064 192.197 178.326 191.774C178.599 191.11 178.873 190.447 179.146 189.783L179.069 189.789C178.638 192.321 178.207 194.853 177.776 197.386L177.854 197.38C177.714 196.88 177.563 196.399 177.422 195.899L177.426 196.025C177.85 195.049 178.284 194.054 177.55 193.023L177.54 193.042Z" fill="#FCE5B5"/>
<path d="M322.202 266.098C322.474 266.275 322.893 266.412 322.978 266.657C323.647 268.643 324.227 270.653 324.65 272.724C323.508 271.934 323.758 270.563 323.307 269.468C322.857 268.373 322.623 267.201 322.271 266.063L322.183 266.088L322.202 266.098Z" fill="#FCE5B5"/>
<path d="M181.922 176.106C182.728 173.215 183.544 170.305 184.35 167.413L184.291 167.429C184.185 168.237 184.194 169.059 183.964 169.822C183.321 171.938 182.573 174.02 181.863 176.123L181.933 176.088L181.922 176.106Z" fill="#FCE5B5"/>
<path d="M369.722 288.537C369.867 286.117 370.012 283.697 370.157 281.276C370.369 281.296 370.562 281.305 370.763 281.344C370.492 283.768 370.76 286.247 369.663 288.554L369.722 288.537Z" fill="#FCE5B5"/>
<path d="M267.912 302.672C268.849 304.931 269.017 307.28 268.737 309.674L268.796 309.658C267.89 307.39 267.633 305.066 267.971 302.655L267.912 302.672Z" fill="#FCE5B5"/>
<path d="M345.167 327.56C344.76 326.564 344.383 325.56 343.976 324.564C344.043 324.18 344.129 323.807 344.195 323.423C345.018 325.223 345.841 327.022 346.664 328.822C346.162 328.391 345.669 327.991 345.167 327.56Z" fill="#FCE5B5"/>
<path d="M176.579 201.69C176.723 201.301 176.867 200.911 176.993 200.511C177.285 199.461 177.577 198.411 177.869 197.362L177.791 197.367C177.445 199.749 177.088 202.15 176.742 204.531L176.83 204.507C176.74 203.564 176.661 202.603 176.589 201.671L176.579 201.69Z" fill="#FCE5B5"/>
<path d="M267.252 202.136L267.343 202.063C267.555 201.067 267.748 200.061 267.96 199.066L268.287 199.101C267.995 201.166 267.721 203.242 267.429 205.307L267.498 205.271C267.413 204.232 267.319 203.164 267.233 202.125L267.252 202.136Z" fill="#FCE5B5"/>
<path d="M172.296 247.439C172.256 246.847 172.188 246.264 172.148 245.672C172.473 244.74 172.817 243.818 173.142 242.886L173.065 242.892C172.972 244.822 172.869 246.77 172.777 248.7L172.865 248.675C172.672 248.269 172.489 247.845 172.296 247.439Z" fill="#FCE5B5"/>
<path d="M171.509 278.356C172.256 280.335 171.716 282.311 171.506 284.274C171.089 282.281 171.058 280.307 171.568 278.339L171.48 278.364L171.509 278.356Z" fill="#FCE5B5"/>
<path d="M372.816 236.649C373.186 237.798 374.663 238.874 372.906 240.415C372.722 239.023 371.799 237.886 372.904 236.624L372.816 236.649Z" fill="#FCE5B5"/>
<path d="M343.834 322.7C343.347 322.155 342.861 321.609 342.404 321.055C341.838 320.342 341.302 319.62 340.766 318.898L340.858 318.999C341.08 318.603 341.302 318.208 341.535 317.793L341.438 317.789C342.231 319.422 343.041 321.066 343.834 322.7Z" fill="#FCE5B5"/>
<path d="M368.407 303.676C368.209 305.794 368.022 307.893 367.824 310.011L367.901 310.005C367.869 309.269 367.807 308.54 367.775 307.804C367.722 306.883 367.688 305.972 367.636 305.051L367.639 305.177C367.914 304.687 368.162 304.157 368.418 303.657L368.407 303.676Z" fill="#FCE5B5"/>
<path d="M264.538 269.496C264.532 269.022 264.525 268.548 264.5 268.063C264.623 267.315 264.746 266.566 264.869 265.818L264.791 265.824C264.868 267.452 264.945 269.08 265.011 270.728L265.089 270.722C264.895 270.316 264.713 269.891 264.538 269.496Z" fill="#FCE5B5"/>
<path d="M171.645 289.106C171.585 290.36 171.554 291.606 171.494 292.86C171.349 292.854 171.223 292.857 171.079 292.85L171.2 289.104L171.655 289.087L171.645 289.106Z" fill="#FCE5B5"/>
<path d="M271.2 181.911C272.262 183.374 270.792 184.58 270.574 185.894C270.773 184.569 270.983 183.225 271.211 181.892L271.2 181.911Z" fill="#FCE5B5"/>
<path d="M242.858 286.454C242.711 285.48 242.564 284.506 242.418 283.532C242.506 283.507 242.624 283.474 242.712 283.449C242.975 284.216 243.297 284.967 243.482 285.74C243.523 285.887 243.057 286.145 242.833 286.366L242.858 286.454Z" fill="#FCE5B5"/>
<path d="M111.884 257.939C112.042 257.878 112.18 257.808 112.319 257.737C113.362 258.57 113.395 259.703 113.222 260.894C112.863 260.519 112.504 260.144 112.144 259.769C112.067 259.156 111.961 258.552 111.884 257.939Z" fill="#FCE5B5"/>
<path d="M267.448 205.317C267.32 206.384 267.221 207.443 267.092 208.511C266.569 207.325 266.716 206.268 267.507 205.301L267.448 205.317Z" fill="#FCE5B5"/>
<path d="M367.813 309.982C367.805 310.968 367.815 311.964 367.796 312.969C367.718 312.975 367.66 312.991 367.592 312.979C367.417 312.409 367.23 311.859 367.036 311.279L367.069 311.397C367.333 310.926 367.608 310.436 367.872 309.965L367.795 309.971L367.813 309.982Z" fill="#FCE5B5"/>
<path d="M273.258 177.319C272.529 176.192 273.068 175.231 273.752 174.277C273.578 175.294 273.414 176.292 273.258 177.319Z" fill="#FCE5B5"/>
<path d="M265.014 270.727C265.109 271.969 265.204 273.212 265.289 274.473L265.377 274.448L264.483 272.732L264.505 272.869C264.703 272.163 264.902 271.457 265.11 270.732L265.033 270.738L265.014 270.727Z" fill="#FCE5B5"/>
<path d="M273.259 177.319C272.577 178.843 271.894 180.368 271.212 181.892C271.894 180.368 272.577 178.843 273.288 177.311L273.259 177.319Z" fill="#FCE5B5"/>
<path d="M367.742 232.934C366.299 232.372 366.74 231.629 367.361 230.788C368.839 231.42 367.426 232.261 367.723 232.923L367.742 232.934Z" fill="#FCE5B5"/>
<path d="M269.443 192.193C269.479 191.247 269.533 190.312 269.569 189.366C269.77 189.404 269.971 189.443 270.154 189.471C269.887 190.387 269.621 191.302 269.355 192.218L269.443 192.193Z" fill="#FCE5B5"/>
<path d="M102.612 211.666C102.835 212.46 103.088 213.246 103.311 214.04C103.193 214.073 103.075 214.106 102.958 214.139C102.675 213.584 102.411 213.039 102.118 212.503L102.151 212.621C102.33 212.3 102.51 211.98 102.7 211.641L102.623 211.647L102.612 211.666Z" fill="#FCE5B5"/>
<path d="M113.509 263.209C113.418 262.886 113.327 262.563 113.236 262.239C113.211 261.754 113.205 261.28 113.18 260.795C114.006 261.705 114.518 262.736 114.254 263.999L114.324 263.964C114.046 263.709 113.768 263.454 113.509 263.209Z" fill="#FCE5B5"/>
<path d="M325.919 277.571C325.73 277.069 325.552 276.548 325.344 276.035C325.472 275.983 325.59 275.95 325.699 275.888C325.915 276.43 326.131 276.972 326.347 277.514C326.21 277.537 326.055 277.548 325.919 277.571Z" fill="#FCE5B5"/>
<path d="M372.341 271.033C372.177 270.223 372.004 269.383 371.84 268.572L371.819 268.61C371.964 269.41 372.128 270.22 372.311 271.041L372.33 271.052L372.341 271.033Z" fill="#FCE5B5"/>
<path d="M371.838 268.572L372.296 266.476C372.42 266.521 372.544 266.565 372.667 266.61C372.394 267.274 372.101 267.927 371.798 268.599L371.838 268.572Z" fill="#FCE5B5"/>
<path d="M276.243 167.724C276.252 167.135 276.261 166.546 276.28 165.937C276.377 165.942 276.454 165.936 276.551 165.941C276.446 166.525 276.348 167.14 276.243 167.724Z" fill="#FCE5B5"/>
<path d="M276.244 167.724L275.134 169.702C275.134 169.702 275.04 169.649 274.984 169.618C275.41 168.99 275.837 168.363 276.244 167.724Z" fill="#FCE5B5"/>
<path d="M372.311 271.041C372.099 271.64 371.905 272.25 371.659 272.954C371.076 272.007 371.632 271.502 372.33 271.052L372.311 271.041Z" fill="#FCE5B5"/>
<path d="M105.668 229.654C105.582 229.234 105.495 228.814 105.39 228.383C105.497 228.369 105.615 228.336 105.703 228.311C105.79 228.731 105.865 229.17 105.951 229.59C105.844 229.604 105.756 229.629 105.649 229.643L105.668 229.654Z" fill="#FCE5B5"/>
<path d="M269.385 192.21C269.323 192.894 269.291 193.569 269.229 194.253C269.057 194.206 268.886 194.159 268.714 194.112C268.966 193.486 269.21 192.83 269.463 192.204L269.375 192.229L269.385 192.21Z" fill="#FCE5B5"/>
<path d="M371.268 277.219C371.184 277.766 371.11 278.294 371.026 278.842C370.929 278.837 370.814 278.822 370.718 278.817C370.754 278.268 370.779 277.737 370.815 277.188C370.96 277.195 371.123 277.212 371.268 277.219Z" fill="#FCE5B5"/>
<path d="M366.74 234.5C365.975 233.526 366.091 233.319 367.725 232.923C367.37 233.467 367.026 233.992 366.652 234.525L366.73 234.519L366.74 234.5Z" fill="#FCE5B5"/>
<path d="M171.69 276.005C171.624 276.785 171.576 277.576 171.51 278.356L171.598 278.331C171.373 277.982 171.167 277.643 170.952 277.275L170.975 277.412C171.239 276.941 171.504 276.47 171.778 275.98L171.701 275.986L171.69 276.005Z" fill="#FCE5B5"/>
<path d="M383.529 217.917C383.555 217.387 383.551 216.864 383.576 216.334C383.654 216.328 383.75 216.332 383.817 216.345C383.714 216.882 383.622 217.4 383.519 217.936L383.529 217.917Z" fill="#FCE5B5"/>
<path d="M185.88 163.144C186.07 162.805 186.223 162.445 186.395 162.095C186.47 162.138 186.564 162.19 186.639 162.233C186.449 162.572 186.296 162.932 186.125 163.281C186.05 163.239 185.974 163.197 185.88 163.144Z" fill="#FCE5B5"/>
<path d="M327.113 279.853C327.175 280.185 327.236 280.516 327.298 280.848C327.18 280.881 327.073 280.895 326.955 280.928L326.634 279.956C326.8 279.925 326.966 279.894 327.132 279.863L327.113 279.853Z" fill="#FCE5B5"/>
<path d="M383.527 217.917C383.277 218.495 383.035 219.103 382.785 219.681L382.597 219.575C382.904 219.029 383.221 218.464 383.527 217.917Z" fill="#FCE5B5"/>
<path d="M184.35 167.413C184.56 166.862 184.778 166.341 184.988 165.79C185.045 165.822 185.101 165.853 185.177 165.896C184.891 166.404 184.595 166.931 184.299 167.459L184.358 167.442L184.35 167.413Z" fill="#FCE5B5"/>
</svg>
