<svg width="96" height="96" viewBox="0 0 96 96" fill="none" xmlns="http://www.w3.org/2000/svg">
<path d="M56 64.0002C56 71.0802 52.92 77.4802 48 81.8402C43.76 85.6802 38.16 88.0002 32 88.0002C18.76 88.0002 8 77.2402 8 64.0002C8 55.2852 12.6964 47.6393 19.6644 43.4501C19.9245 43.2937 20.2601 43.4119 20.3781 43.6915C23.9444 52.1479 31.2637 58.53 40.08 60.9202C42.6 61.6402 45.24 62.0002 48 62.0002C50.5269 62.0002 52.9157 61.6895 55.2305 61.1322C55.5157 61.0636 55.802 61.249 55.8405 61.5399C55.9468 62.3432 56 63.185 56 64.0002Z" fill="#F3561E"/>
<path d="M72 32C72 35.12 71.4 38.12 70.32 40.84C67.56 47.8 61.64 53.16 54.32 55.16C52.32 55.72 50.2 56 48 56C45.8 56 43.68 55.72 41.68 55.16C34.36 53.16 28.44 47.8 25.68 40.84C24.6 38.12 24 35.12 24 32C24 18.76 34.76 8 48 8C61.24 8 72 18.76 72 32Z" fill="#F3561E"/>
<path d="M88 64.0002C88 77.2402 77.24 88.0002 64 88.0002C60.2865 88.0002 56.7489 87.156 53.618 85.6325C53.3115 85.4833 53.2529 85.0758 53.4926 84.8333C58.9444 79.3164 62 71.8469 62 64.0002C62 62.6402 61.88 61.2802 61.68 60.0002L61.5385 59.1227C61.5037 58.907 61.6133 58.694 61.8076 58.5938C67.9661 55.4195 72.8983 50.1718 75.6224 43.6922C75.7401 43.4123 76.0759 43.294 76.3362 43.4504C83.3039 47.6398 88 55.2855 88 64.0002Z" fill="#F3561E"/>
</svg>
