<svg width="96" height="96" viewBox="0 0 96 96" fill="none" xmlns="http://www.w3.org/2000/svg">
<path d="M80 57C84.9706 57 89 52.9706 89 48C89 43.0294 84.9706 39 80 39C75.0294 39 71 43.0294 71 48C71 52.9706 75.0294 57 80 57Z" fill="#F3561E"/>
<path d="M80 25C84.9706 25 89 20.9706 89 16C89 11.0294 84.9706 7 80 7C75.0294 7 71 11.0294 71 16C71 20.9706 75.0294 25 80 25Z" fill="#F3561E"/>
<path d="M80 89C84.9706 89 89 84.9706 89 80C89 75.0294 84.9706 71 80 71C75.0294 71 71 75.0294 71 80C71 84.9706 75.0294 89 80 89Z" fill="#F3561E"/>
<path d="M16 57C20.9706 57 25 52.9706 25 48C25 43.0294 20.9706 39 16 39C11.0294 39 7 43.0294 7 48C7 52.9706 11.0294 57 16 57Z" fill="#F3561E"/>
<path d="M76 51C77.64 51 79 49.64 79 48C79 46.36 77.64 45 76 45H47V28C47 21.68 49.68 19 56 19H76C77.64 19 79 17.64 79 16C79 14.36 77.64 13 76 13H56C46.32 13 41 18.32 41 28V45H20C18.36 45 17 46.36 17 48C17 49.64 18.36 51 20 51H41V68C41 77.68 46.32 83 56 83H76C77.64 83 79 81.64 79 80C79 78.36 77.64 77 76 77H56C49.68 77 47 74.32 47 68V51H76Z" fill="#F3561E"/>
</svg>
