<svg width="96" height="96" viewBox="0 0 96 96" fill="none" xmlns="http://www.w3.org/2000/svg">
<path d="M88 85C88 86.64 86.64 88 85 88H11C9.36 88 8 86.64 8 85C8 83.36 9.36 82 11 82H85C86.64 82 88 83.36 88 85Z" fill="#F3561E"/>
<path d="M61.5617 18.08L18.6017 61.04C16.9617 62.68 14.3217 62.68 12.7217 61.04H12.6817C7.12172 55.44 7.12172 46.4 12.6817 40.84L41.2817 12.24C46.8817 6.64004 55.9217 6.64004 61.5217 12.24C63.1617 13.8 63.1617 16.48 61.5617 18.08Z" fill="#F3561E"/>
<path d="M83.2817 33.9603L71.0817 21.7603C69.4417 20.1203 66.8017 20.1203 65.2017 21.7603L22.2417 64.7203C20.6017 66.3203 20.6017 68.9603 22.2417 70.6003L34.4417 82.8403C40.0417 88.4003 49.0817 88.4003 54.6817 82.8403L83.2417 54.2403C88.9217 48.6403 88.9217 39.5603 83.2817 33.9603ZM51.0417 70.0803L46.2017 74.9603C45.2017 75.9603 43.5617 75.9603 42.5217 74.9603C41.5217 73.9603 41.5217 72.3203 42.5217 71.2803L47.4017 66.4003C48.3617 65.4403 50.0417 65.4403 51.0417 66.4003C52.0417 67.4003 52.0417 69.1203 51.0417 70.0803ZM66.9217 54.2003L57.1617 64.0003C56.1617 64.9603 54.5217 64.9603 53.4817 64.0003C52.4817 63.0003 52.4817 61.3603 53.4817 60.3203L63.2817 50.5203C64.2417 49.5603 65.9217 49.5603 66.9217 50.5203C67.9217 51.5603 67.9217 53.2003 66.9217 54.2003Z" fill="#F3561E"/>
</svg>
