<svg width="96" height="96" viewBox="0 0 96 96" fill="none" xmlns="http://www.w3.org/2000/svg">
<path d="M64.76 8H31.24C16.68 8 8 16.68 8 31.24V64.72C8 79.32 16.68 88 31.24 88H64.72C79.28 88 87.96 79.32 87.96 64.76V31.24C88 16.68 79.32 8 64.76 8ZM30.52 72.6C30.52 74.24 29.16 75.6 27.52 75.6C25.88 75.6 24.52 74.24 24.52 72.6V64.32C24.52 62.68 25.88 61.32 27.52 61.32C29.16 61.32 30.52 62.68 30.52 64.32V72.6ZM51 72.6C51 74.24 49.64 75.6 48 75.6C46.36 75.6 45 74.24 45 72.6V56C45 54.36 46.36 53 48 53C49.64 53 51 54.36 51 56V72.6ZM71.48 72.6C71.48 74.24 70.12 75.6 68.48 75.6C66.84 75.6 65.48 74.24 65.48 72.6V47.72C65.48 46.08 66.84 44.72 68.48 44.72C70.12 44.72 71.48 46.08 71.48 47.72V72.6ZM71.48 35.08C71.48 36.72 70.12 38.08 68.48 38.08C66.84 38.08 65.48 36.72 65.48 35.08V31.2C55.28 41.68 42.52 49.08 28.24 52.64C28 52.72 27.76 52.72 27.52 52.72C26.16 52.72 24.96 51.8 24.6 50.44C24.2 48.84 25.16 47.2 26.8 46.8C40.28 43.44 52.28 36.36 61.8 26.36H56.8C55.16 26.36 53.8 25 53.8 23.36C53.8 21.72 55.16 20.36 56.8 20.36H68.52C68.68 20.36 68.8 20.44 68.96 20.44C69.16 20.48 69.36 20.48 69.56 20.56C69.76 20.64 69.92 20.76 70.12 20.88C70.24 20.96 70.36 21 70.48 21.08C70.52 21.12 70.52 21.16 70.56 21.16C70.72 21.32 70.84 21.48 70.96 21.64C71.08 21.8 71.2 21.92 71.24 22.08C71.32 22.24 71.32 22.4 71.36 22.6C71.4 22.8 71.48 23 71.48 23.24C71.48 23.28 71.52 23.32 71.52 23.36V35.08H71.48Z" fill="#F3561E"/>
</svg>
