<svg width="96" height="96" viewBox="0 0 96 96" fill="none" xmlns="http://www.w3.org/2000/svg">
<path d="M26.8008 37.04L48.0007 49.32L69.0408 37.12" stroke="#F3561E" stroke-width="6" stroke-linecap="round" stroke-linejoin="round"/>
<path d="M48 71.0803V49.2803" stroke="#F3561E" stroke-width="6" stroke-linecap="round" stroke-linejoin="round"/>
<path d="M43.041 25.1604L30.241 32.2804C27.361 33.8804 24.9609 37.9204 24.9609 41.2404V54.8004C24.9609 58.1204 27.321 62.1604 30.241 63.7604L43.041 70.8804C45.761 72.4004 50.241 72.4004 53.001 70.8804L65.801 63.7604C68.681 62.1604 71.0809 58.1204 71.0809 54.8004V41.2004C71.0809 37.8804 68.721 33.8404 65.801 32.2404L53.001 25.1204C50.241 23.6004 45.761 23.6004 43.041 25.1604Z" stroke="#F3561E" stroke-width="6" stroke-linecap="round" stroke-linejoin="round"/>
<path d="M88 60C88 75.48 75.48 88 60 88L64.2 81" stroke="#F3561E" stroke-width="6" stroke-linecap="round" stroke-linejoin="round"/>
<path d="M8 36C8 20.52 20.52 8 36 8L31.8 15" stroke="#F3561E" stroke-width="6" stroke-linecap="round" stroke-linejoin="round"/>
</svg>
