<svg width="96" height="96" viewBox="0 0 96 96" fill="none" xmlns="http://www.w3.org/2000/svg">
<path d="M8 36V26C8 16.04 16.04 8 26 8H36" stroke="#F3561E" stroke-width="6" stroke-linecap="round" stroke-linejoin="round"/>
<path d="M60 8H70C79.96 8 88 16.04 88 26V36" stroke="#F3561E" stroke-width="6" stroke-linecap="round" stroke-linejoin="round"/>
<path d="M88 64V70C88 79.96 79.96 88 70 88H64" stroke="#F3561E" stroke-width="6" stroke-linecap="round" stroke-linejoin="round"/>
<path d="M36 88H26C16.04 88 8 79.96 8 70V60" stroke="#F3561E" stroke-width="6" stroke-linecap="round" stroke-linejoin="round"/>
<path d="M68 38V58C68 66 64 70 56 70H40C32 70 28 66 28 58V38C28 30 32 26 40 26H56C64 26 68 30 68 38Z" stroke="#F3561E" stroke-width="6" stroke-linecap="round" stroke-linejoin="round"/>
<path d="M76 48H20" stroke="#F3561E" stroke-width="6" stroke-linecap="round" stroke-linejoin="round"/>
</svg>
