<svg width="96" height="96" viewBox="0 0 96 96" fill="none" xmlns="http://www.w3.org/2000/svg">
<path d="M36.6383 43.48C36.2383 43.44 35.7583 43.44 35.3183 43.48C25.7983 43.16 18.2383 35.36 18.2383 25.76C18.2383 15.96 26.1583 8 35.9983 8C45.7983 8 53.7583 15.96 53.7583 25.76C53.7183 35.36 46.1583 43.16 36.6383 43.48Z" stroke="#F3561E" stroke-width="6" stroke-linecap="round" stroke-linejoin="round"/>
<path d="M65.6411 16C73.4011 16 79.6411 22.28 79.6411 30C79.6411 37.56 73.6411 43.72 66.1611 44C65.8411 43.96 65.4811 43.96 65.1211 44" stroke="#F3561E" stroke-width="6" stroke-linecap="round" stroke-linejoin="round"/>
<path d="M16.6389 58.24C6.95891 64.72 6.95891 75.28 16.6389 81.72C27.6389 89.08 45.6789 89.08 56.6789 81.72C66.3589 75.24 66.3589 64.68 56.6789 58.24C45.7189 50.92 27.6789 50.92 16.6389 58.24Z" stroke="#F3561E" stroke-width="6" stroke-linecap="round" stroke-linejoin="round"/>
<path d="M73.3594 80C76.2394 79.4 78.9594 78.24 81.1994 76.52C87.4394 71.84 87.4394 64.12 81.1994 59.44C78.9994 57.76 76.3194 56.64 73.4794 56" stroke="#F3561E" stroke-width="6" stroke-linecap="round" stroke-linejoin="round"/>
</svg>
