<svg width="96" height="96" viewBox="0 0 96 96" fill="none" xmlns="http://www.w3.org/2000/svg">
<path d="M88 24V33.68C88 40 83.9999 44 77.6799 44H64V16.04C64 11.6 67.6401 8 72.0801 8C76.4401 8.04 80.4401 9.8 83.3201 12.68C86.2001 15.6 88 19.6 88 24Z" stroke="#F3561E" stroke-width="6" stroke-miterlimit="10" stroke-linecap="round" stroke-linejoin="round"/>
<path d="M8 28V84C8 87.32 11.7599 89.2 14.3999 87.2L21.24 82.08C22.84 80.88 25.08 81.04 26.52 82.48L33.1599 89.16C34.7199 90.72 37.2801 90.72 38.8401 89.16L45.5601 82.44C46.9601 81.04 49.2 80.88 50.76 82.08L57.6001 87.2C60.2401 89.16 64 87.28 64 84V16C64 11.6 67.6 8 72 8H28H24C12 8 8 15.16 8 24V28Z" stroke="#F3561E" stroke-width="6" stroke-miterlimit="10" stroke-linecap="round" stroke-linejoin="round"/>
<path d="M24 36H48" stroke="#F3561E" stroke-width="6" stroke-linecap="round" stroke-linejoin="round"/>
<path d="M27 52H45" stroke="#F3561E" stroke-width="6" stroke-linecap="round" stroke-linejoin="round"/>
</svg>
