<svg width="820" height="820" viewBox="0 0 820 820" fill="none" xmlns="http://www.w3.org/2000/svg">
<circle cx="417.786" cy="414.791" r="321.495" transform="rotate(4.61249 417.786 414.791)" fill="black"/>
<circle cx="402.045" cy="404.307" r="316.495" transform="rotate(4.61249 402.045 404.307)" fill="white" stroke="black" stroke-width="10"/>
<path d="M308.025 427.443C303.978 427.117 300.226 425.196 297.595 422.103C294.964 419.01 293.67 414.999 293.996 410.952L307.538 243.096C307.865 239.049 309.786 235.297 312.878 232.666C315.971 230.035 319.982 228.741 324.029 229.067C328.076 229.394 331.828 231.314 334.459 234.407C337.09 237.5 338.384 241.511 338.058 245.558L324.516 413.414C324.189 417.462 322.268 421.213 319.176 423.844C316.083 426.475 312.072 427.77 308.025 427.443Z" fill="black"/>
<path d="M331.156 521.461L300.637 518.999C297.605 518.772 294.709 517.647 292.318 515.768C289.927 513.888 288.151 511.34 287.214 508.447C286.278 505.554 286.224 502.447 287.06 499.524C287.896 496.6 289.584 493.991 291.908 492.031C293.442 490.715 295.221 489.716 297.143 489.091C299.065 488.466 301.092 488.228 303.106 488.391C305.121 488.553 307.083 489.113 308.88 490.038C310.677 490.963 312.273 492.234 313.577 493.779C316.294 496.514 319.944 498.123 323.796 498.285C327.649 498.446 331.42 497.148 334.357 494.65C337.294 492.151 339.18 488.637 339.638 484.808C340.096 480.98 339.093 477.119 336.829 473.998C328.764 465.008 317.558 459.454 305.519 458.483C293.481 457.512 281.529 461.197 272.128 468.779C262.848 476.663 257.079 487.909 256.089 500.046C255.725 505.255 256.237 510.488 257.605 515.527L254.858 515.305C250.811 514.979 246.8 516.273 243.707 518.904C240.614 521.535 238.694 525.287 238.367 529.334C238.041 533.381 239.335 537.392 241.966 540.485C244.597 543.577 248.349 545.498 252.396 545.825L328.694 551.98C332.741 552.307 336.752 551.012 339.845 548.381C342.938 545.751 344.858 541.999 345.185 537.952C345.511 533.905 344.217 529.894 341.586 526.801C338.955 523.708 335.203 521.787 331.156 521.461Z" fill="black"/>
<path d="M391.952 434.212C404.594 435.232 415.668 425.81 416.688 413.169C417.708 400.527 408.287 389.452 395.645 388.433C383.004 387.413 371.929 396.834 370.909 409.475C369.889 422.117 379.311 433.192 391.952 434.212Z" fill="black"/>
<path d="M511.131 443.826L475.881 440.982C471.834 440.656 468.082 438.735 465.451 435.642C462.82 432.55 461.526 428.539 461.852 424.491C462.179 420.444 464.099 416.693 467.192 414.062C470.285 411.431 474.296 410.136 478.343 410.463L513.593 413.307C515.402 413.378 517.196 412.953 518.783 412.08C520.369 411.207 521.686 409.917 522.594 408.35C524.12 406.138 525.038 403.564 525.254 400.885C525.47 398.207 524.977 395.518 523.825 393.09L486.426 327.408C485.438 325.655 484.805 323.723 484.563 321.725C484.322 319.727 484.476 317.7 485.017 315.761C485.559 313.823 486.477 312.009 487.719 310.426C488.961 308.842 490.503 307.518 492.257 306.53C495.799 304.534 499.989 304.028 503.904 305.121C505.843 305.663 507.656 306.581 509.24 307.823C510.824 309.065 512.148 310.607 513.136 312.361L550.791 378.678C554.578 385.968 556.341 394.141 555.896 402.345C555.45 410.548 552.812 418.482 548.257 425.319C544.306 431.459 538.772 436.419 532.238 439.676C525.704 442.934 518.412 444.367 511.131 443.826Z" fill="black"/>
</svg>
