<svg width="64" height="64" viewBox="0 0 64 64" fill="none" xmlns="http://www.w3.org/2000/svg">
<g clip-path="url(#clip0_2268_14355)">
<path d="M54.4311 9.30052C48.4412 3.30648 40.4764 0.0036571 31.9904 0C14.5039 0 0.273342 14.226 0.266341 31.7118C0.264303 37.3012 1.72474 42.7572 4.50063 47.5666L0 64L16.8173 59.5903C21.4508 62.1172 26.6678 63.4488 31.9768 63.4509H31.9903H31.9904C49.4742 63.4509 63.7069 49.2224 63.7143 31.7375C63.7172 23.263 60.4202 15.295 54.4311 9.30052ZM31.9904 58.0947H31.9801C27.248 58.0922 22.6074 56.8217 18.5598 54.4199L17.5965 53.8488L7.61674 56.4654L10.2812 46.7388L9.65358 45.7416C7.01394 41.5445 5.62043 36.6942 5.62242 31.7138C5.62822 17.1802 17.4561 5.35644 32.0004 5.35644C39.0436 5.35937 45.6633 8.1047 50.6419 13.0868C55.6202 18.0688 58.3598 24.6917 58.3577 31.7352C58.3516 46.2693 46.5233 58.0947 31.9904 58.0947Z" fill="#E0E0E0"/>
<path d="M1.45703 62.1767L5.75208 46.4941C3.10231 41.9043 1.70885 36.6971 1.71052 31.364C1.71747 14.6773 15.2981 1.10156 31.9844 1.10156C40.0831 1.10522 47.6842 4.25701 53.3992 9.97738C59.1155 15.6977 62.2616 23.3013 62.2583 31.3877C62.2513 48.0748 48.6699 61.6518 31.9856 61.6518C31.9865 61.6518 31.9844 61.6518 31.9856 61.6518H31.9721C26.9057 61.6502 21.9274 60.3783 17.5058 57.9686L1.45703 62.1767Z" fill="url(#paint0_linear_2268_14355)"/>
<path fill-rule="evenodd" clip-rule="evenodd" d="M24.1517 18.2492C23.5648 16.9443 22.9468 16.9182 22.3885 16.8954C21.9317 16.8758 21.4089 16.877 20.8869 16.877C20.3644 16.877 19.5154 17.0733 18.7975 17.8574C18.0792 18.6415 16.0547 20.5369 16.0547 24.392C16.0547 28.2475 18.8628 31.9727 19.2542 32.496C19.6461 33.0184 24.675 41.1824 32.6394 44.3232C39.2584 46.9333 40.6054 46.4141 42.0421 46.2835C43.4788 46.1529 46.6779 44.3885 47.331 42.5587C47.9841 40.7293 47.9841 39.1612 47.7881 38.8334C47.5922 38.5069 47.0698 38.3109 46.2861 37.9191C45.5025 37.5273 41.6503 35.6314 40.9319 35.3702C40.2136 35.1089 39.6911 34.9783 39.1687 35.7628C38.6462 36.5465 37.1454 38.3109 36.6883 38.8334C36.2311 39.357 35.774 39.4223 34.9903 39.0305C34.2067 38.6375 31.683 37.8109 28.6892 35.1415C26.3599 33.0648 24.7872 30.5 24.3301 29.7155C23.8729 28.9318 24.2811 28.5074 24.6741 28.1167C25.026 27.7657 25.4578 27.202 25.8496 26.7445C26.2406 26.2869 26.3712 25.9604 26.6325 25.438C26.8937 24.9147 26.7631 24.4572 26.5672 24.0654C26.3712 23.6735 24.8484 19.7986 24.1517 18.2492Z" fill="white"/>
<path d="M54.1734 9.19964C48.2522 3.27441 40.3789 0.00956871 31.9905 0.00585938C14.7046 0.00585938 0.637395 14.0685 0.630446 31.3536C0.628409 36.8789 2.07207 42.2723 4.8161 47.0265L0.367188 63.2712L16.9915 58.912C21.5718 61.4099 26.7289 62.7262 31.977 62.7283H31.9903H31.9905C49.2735 62.7283 63.3427 48.6631 63.35 31.3789C63.3529 23.0019 60.0938 15.1253 54.1734 9.19964ZM31.9905 57.4337H31.9803C27.3024 57.4312 22.7151 56.1753 18.7139 53.8011L17.7616 53.2366L7.89647 55.8231L10.5303 46.2081L9.90991 45.2224C7.30057 41.0735 5.92305 36.2789 5.92508 31.3557C5.93078 16.9889 17.6229 5.30092 32.0003 5.30092C38.9627 5.30379 45.5062 8.01761 50.4278 12.9425C55.3489 17.8673 58.0571 24.4141 58.055 31.3769C58.0489 45.7441 46.3564 57.4337 31.9905 57.4337Z" fill="white"/>
</g>
<defs>
<linearGradient id="paint0_linear_2268_14355" x1="31.8577" y1="62.1767" x2="31.8577" y2="1.10166" gradientUnits="userSpaceOnUse">
<stop stop-color="#20B038"/>
<stop offset="1" stop-color="#60D66A"/>
</linearGradient>
<clipPath id="clip0_2268_14355">
<rect width="64" height="64" fill="white"/>
</clipPath>
</defs>
</svg>
