<svg width="481" height="595" viewBox="0 0 481 595" fill="none" xmlns="http://www.w3.org/2000/svg">
<path d="M295.078 97.6198C292.378 92.7398 288.778 86.2198 286.078 81.3398L294.898 97.2398C294.998 97.3698 294.998 97.4898 295.078 97.6198Z" fill="#FFC910"/>
<path d="M420.34 4.76953L430.34 22.7695C432.88 27.3595 429.24 35.3995 418.69 46.0695C395.9 69.0695 349.53 95.6695 315.11 105.41C296.63 110.63 285.36 109.94 282.41 104.62L272.41 86.6195C275.35 91.9495 286.63 92.6195 305.11 87.4095C339.52 77.6795 385.89 51.1096 408.68 28.0695C419.23 17.4095 422.88 9.36953 420.34 4.76953Z" fill="#FFAB01"/>
<path d="M387.629 3.99992C422.039 -5.73008 431.469 4.99992 408.629 28.0899C385.789 51.1799 339.469 77.6999 305.059 87.4299C270.649 97.1599 261.219 86.4299 284.009 63.3399C306.799 40.2499 353.209 13.7199 387.629 3.99992ZM312.189 80.2699C340.699 72.2099 379.099 50.1999 397.979 31.1199C416.859 12.0399 409.049 3.11992 380.549 11.1199C352.049 19.1199 313.639 41.1899 294.759 60.2699C275.879 79.3499 283.689 88.2699 312.189 80.2699Z" fill="#FFC910"/>
<path d="M380.55 11.1403C409.05 3.08028 416.86 12.0103 397.98 31.1403C379.1 50.2703 340.69 72.2302 312.19 80.2902C283.69 88.3502 275.89 79.4203 294.76 60.2903C313.63 41.1603 352.05 19.2103 380.55 11.1403Z" fill="#FFAB01"/>
<path d="M295.909 62.58C314.789 43.5 353.199 21.49 381.699 13.43C395.889 9.42999 404.939 9.61999 408.139 13.18C406.919 7.54999 397.319 6.39999 380.549 11.18C352.049 19.25 313.639 41.25 294.759 60.33C285.279 69.92 282.529 76.94 285.759 80.54C284.909 76.56 288.149 70.43 295.909 62.58Z" fill="#F99B0F"/>
<path d="M283.648 91L292.748 109C298.258 109.22 305.748 108.09 315.078 105.45C325.196 102.484 335.082 98.7803 344.658 94.37L335.398 76C325.599 80.5481 315.475 84.3587 305.108 87.4C296.258 89.91 289.068 91.06 283.648 91Z" fill="#F99B0F"/>
<path d="M272.529 520.19C272.309 514.29 272.009 506.42 271.789 500.52C271.939 504.58 272.369 515.52 272.539 519.74C272.529 519.89 272.529 520 272.529 520.19Z" fill="#FFC910"/>
<path d="M435.099 492.24C435.366 499.5 435.639 506.76 435.919 514.02C436.139 519.57 428.859 525.42 413.809 530.47C381.299 541.35 324.809 544.33 287.689 537.11C267.749 533.23 257.429 527.2 257.189 520.77L256.359 499C256.599 505.43 266.919 511.46 286.869 515.34C324.009 522.56 380.469 519.59 412.979 508.69C427.999 503.64 435.309 497.79 435.099 492.24Z" fill="#FFAB01"/>
<path d="M404.589 475.89C441.729 483.11 445.489 497.79 412.979 508.68C380.469 519.57 323.979 522.55 286.869 515.33C249.759 508.11 245.969 493.43 278.479 482.54C310.989 471.65 367.449 468.68 404.589 475.89ZM296.999 512C327.769 518 374.539 515.51 401.459 506.49C428.379 497.47 425.279 485.31 394.519 479.33C363.759 473.35 316.999 475.77 289.999 484.79C262.999 493.81 266.209 506 296.999 512Z" fill="#FFC910"/>
<path d="M394.488 479.28C425.248 485.28 428.358 497.42 401.428 506.44C374.498 515.46 327.738 517.93 296.998 512C266.258 506.07 263.098 493.81 289.998 484.79C316.898 475.77 363.728 473.3 394.488 479.28Z" fill="#FFAB01"/>
<path d="M289.998 487.5C316.928 478.5 363.698 476.01 394.458 481.99C409.768 484.99 418.218 489.47 419.538 494.36C421.078 488.46 412.538 482.8 394.458 479.28C363.698 473.28 316.928 475.77 289.998 484.79C276.468 489.32 270.528 494.64 271.858 499.58C272.998 495.45 278.998 491.21 289.998 487.5Z" fill="#F99B0F"/>
<path d="M264.898 508.47V529.82C270.008 532.64 277.618 535.15 287.688 537.11C298.658 539.133 309.761 540.353 320.908 540.76V519C309.499 518.618 298.135 517.388 286.908 515.32C277.318 513.47 269.998 511.13 264.898 508.47Z" fill="#F99B0F"/>
<path d="M381.869 486.07L373.719 488.8C376.969 489.7 378.499 490.8 378.309 492.05C378.119 493.3 376.219 494.63 372.609 495.98L364.219 494.34C366.219 493.574 367.099 492.824 366.859 492.09C366.599 491.36 365.239 490.75 362.759 490.27C359.955 489.747 357.097 489.572 354.249 489.75C351.505 489.881 348.788 490.368 346.169 491.2C345.467 491.405 344.795 491.701 344.169 492.08C343.739 492.37 343.519 492.67 343.519 492.98C343.479 493.607 344.999 494.417 348.079 495.41C349.929 496 351.249 496.47 352.079 496.83C354.939 498.08 356.189 499.33 355.809 500.6C355.429 501.87 353.499 503.08 349.969 504.26C344.999 505.85 339.862 506.857 334.659 507.26C329.443 507.796 324.183 507.739 318.979 507.09L309.189 510.37L301.359 508.85L310.769 505.69C306.649 504.6 304.659 503.29 304.829 501.77C304.999 500.25 307.319 498.77 311.829 497.22L319.919 498.8C317.059 499.847 315.746 500.8 315.979 501.66C316.199 502.51 317.979 503.27 321.349 503.92C324.568 504.525 327.85 504.727 331.119 504.52C334.27 504.385 337.388 503.827 340.389 502.86C341.198 502.591 341.984 502.256 342.739 501.86C343.194 501.659 343.594 501.354 343.909 500.97C344.499 500.05 343.109 499.02 339.719 497.89L338.479 497.47C334.353 496.03 332.186 494.677 331.979 493.41C331.773 492.144 333.536 490.884 337.269 489.63C341.727 488.218 346.335 487.336 350.999 487C355.994 486.556 361.021 486.633 365.999 487.23L374.069 484.53L381.869 486.07Z" fill="#F99B0F"/>
<path d="M381.871 483L373.721 485.73C376.971 486.63 378.501 487.73 378.311 488.98C378.121 490.23 376.221 491.56 372.611 492.91L364.221 491.28C366.221 490.514 367.101 489.764 366.861 489.03C366.601 488.29 365.241 487.68 362.761 487.2C359.956 486.677 357.098 486.502 354.251 486.68C351.506 486.811 348.79 487.298 346.171 488.13C345.468 488.335 344.796 488.631 344.171 489.01C343.741 489.3 343.521 489.6 343.521 489.91C343.481 490.544 345.001 491.354 348.081 492.34C349.931 492.93 351.251 493.4 352.081 493.76C354.941 495.01 356.191 496.26 355.811 497.53C355.431 498.8 353.531 500 350.001 501.2C345.031 502.79 339.893 503.797 334.691 504.2C329.474 504.736 324.214 504.679 319.011 504.03L309.221 507.31L301.391 505.79L310.801 502.64C306.681 501.54 304.691 500.23 304.861 498.71C305.031 497.19 307.351 495.71 311.861 494.17L319.951 495.74C317.091 496.794 315.777 497.747 316.011 498.6C316.231 499.45 318.011 500.21 321.381 500.86C324.599 501.47 327.882 501.672 331.151 501.46C334.301 501.325 337.419 500.767 340.421 499.8C341.231 499.535 342.018 499.201 342.771 498.8C343.227 498.603 343.628 498.297 343.941 497.91C344.531 496.99 343.141 495.91 339.751 494.83L338.511 494.41C334.384 492.97 332.217 491.617 332.011 490.35C331.804 489.084 333.567 487.827 337.301 486.58C341.749 485.183 346.348 484.317 351.001 484C355.995 483.556 361.022 483.633 366.001 484.23L374.071 481.53L381.871 483Z" fill="#FFC910"/>
<path d="M282.18 496.55C281.95 490.64 281.66 482.77 281.43 476.87C281.58 480.93 282.01 491.87 282.18 496.09C282.17 496.243 282.17 496.397 282.18 496.55Z" fill="#FFC910"/>
<path d="M444.74 468.59C445.02 475.857 445.297 483.116 445.57 490.37C445.78 495.93 438.5 501.78 423.45 506.82C390.94 517.71 334.45 520.68 297.34 513.47C277.34 509.59 267.07 503.56 266.83 497.12L266 475.34C266.25 481.78 276.57 487.81 296.51 491.69C333.66 498.91 390.12 495.93 422.62 485.04C437.68 480 445 474.15 444.74 468.59Z" fill="#FFAB01"/>
<path d="M414.23 452.25C451.38 459.47 455.14 474.15 422.62 485.04C390.1 495.93 333.62 498.91 296.51 491.69C259.4 484.47 255.62 469.79 288.12 458.9C320.62 448.01 377.09 445 414.23 452.25ZM306.61 488.25C337.38 494.25 384.15 491.77 411.08 482.75C438.01 473.73 434.89 461.57 404.08 455.58C373.27 449.59 326.55 452.07 299.62 461.09C272.69 470.11 275.81 482.27 306.56 488.25H306.61Z" fill="#FFC910"/>
<path d="M404.128 455.63C434.888 461.63 438.008 473.77 411.128 482.8C384.248 491.83 337.428 494.28 306.658 488.3C275.888 482.32 272.798 470.16 299.718 461.14C326.638 452.12 373.368 449.66 404.128 455.63Z" fill="#FFAB01"/>
<path d="M299.668 463.85C326.598 454.85 373.368 452.37 404.128 458.35C419.438 461.35 427.898 465.83 429.208 470.72C430.748 464.82 422.208 459.16 404.128 455.63C373.368 449.63 326.598 452.12 299.668 461.14C286.148 465.67 280.208 471 281.538 475.93C282.608 471.81 288.588 467.56 299.668 463.85Z" fill="#F99B0F"/>
<path d="M274.551 484.83V506.17C279.651 509 287.261 511.51 297.341 513.47C308.311 515.49 319.414 516.707 330.561 517.11V495.37C319.152 494.988 307.787 493.758 296.561 491.69C287.001 489.83 279.631 487.48 274.551 484.83Z" fill="#F99B0F"/>
<path d="M391.51 462.42L383.36 465.16C386.61 466.06 388.15 467.16 387.95 468.41C387.75 469.66 385.86 470.98 382.26 472.33L373.86 470.7C375.86 469.926 376.74 469.176 376.5 468.45C376.25 467.71 374.88 467.11 372.41 466.63C369.606 466.102 366.747 465.927 363.9 466.11C361.155 466.23 358.438 466.714 355.82 467.55C355.12 467.761 354.449 468.057 353.82 468.43C353.38 468.73 353.16 469.03 353.16 469.34C353.16 469.97 354.64 470.77 357.73 471.76C359.57 472.35 360.89 472.82 361.73 473.18C364.59 474.43 365.84 475.68 365.47 476.95C365.1 478.22 363.15 479.44 359.63 480.62C354.654 482.199 349.514 483.205 344.31 483.62C339.093 484.152 333.833 484.092 328.63 483.44L318.84 486.72L311 485.24L320.42 482.09C316.29 480.99 314.3 479.68 314.48 478.17C314.66 476.66 316.96 475.17 321.48 473.62L329.56 475.19C326.7 476.19 325.39 477.19 325.62 478.05C325.85 478.91 327.62 479.66 330.99 480.31C334.208 480.92 337.491 481.121 340.76 480.91C343.911 480.776 347.029 480.217 350.03 479.25C350.841 478.978 351.63 478.643 352.39 478.25C352.841 478.042 353.24 477.739 353.56 477.36C354.15 476.44 352.75 475.36 349.36 474.27L348.13 473.85C343.99 472.41 341.823 471.056 341.63 469.79C341.437 468.523 343.197 467.266 346.91 466.02C351.37 464.578 355.986 463.675 360.66 463.33C365.654 462.881 370.682 462.958 375.66 463.56L383.73 460.85L391.51 462.42Z" fill="#F99B0F"/>
<path d="M391.51 459.36L383.36 462.1C386.61 463 388.15 464.1 387.95 465.35C387.75 466.6 385.86 467.92 382.26 469.27L373.86 467.64C375.86 466.873 376.74 466.123 376.5 465.39C376.25 464.66 374.88 464.05 372.41 463.57C369.606 463.042 366.747 462.867 363.9 463.05C361.154 463.168 358.436 463.656 355.82 464.5C355.119 464.704 354.447 464.997 353.82 465.37C353.38 465.67 353.16 465.97 353.16 466.28C353.16 466.91 354.64 467.72 357.73 468.7C359.57 469.29 360.89 469.77 361.73 470.12C364.59 471.373 365.837 472.63 365.47 473.89C365.09 475.16 363.15 476.38 359.63 477.56C349.607 480.653 339.05 481.627 328.63 480.42L318.84 483.71L311 482.19L320.42 479.03C316.29 477.93 314.3 476.62 314.48 475.11C314.66 473.6 316.96 472.11 321.48 470.56L329.56 472.13C326.7 473.13 325.39 474.13 325.62 474.99C325.85 475.85 327.62 476.6 330.99 477.25C334.208 477.86 337.491 478.062 340.76 477.85C343.9 477.712 347.007 477.157 350 476.2C350.81 475.924 351.598 475.59 352.36 475.2C352.811 474.993 353.21 474.689 353.53 474.31C354.117 473.39 352.717 472.36 349.33 471.22L348.1 470.8C343.96 469.36 341.793 468.01 341.6 466.75C341.407 465.49 343.167 464.23 346.88 462.97C351.34 461.528 355.956 460.625 360.63 460.28C365.624 459.836 370.652 459.913 375.63 460.51L383.7 457.8L391.51 459.36Z" fill="#FFC910"/>
<path d="M274.439 468.2C274.219 462.29 273.919 454.43 273.699 448.52C273.849 452.59 274.279 463.52 274.449 467.74C274.439 467.9 274.439 468.05 274.439 468.2Z" fill="#FFC910"/>
<path d="M437 440.25C437.28 447.51 437.556 454.77 437.83 462.03C438.04 467.58 430.76 473.43 415.71 478.47C383.2 489.36 326.709 492.34 289.599 485.12C269.599 481.24 259.33 475.21 259.09 468.77L258.27 447C258.52 453.44 268.83 459.47 288.78 463.35C325.92 470.57 382.39 467.59 414.89 456.7C430 451.65 437.22 445.8 437 440.25Z" fill="#FFAB01"/>
<path d="M406.499 423.9C443.639 431.12 447.409 445.8 414.889 456.69C382.369 467.58 325.889 470.56 288.779 463.34C251.669 456.12 247.879 441.44 280.389 430.55C312.899 419.66 369.359 416.68 406.499 423.9ZM298.879 460C329.649 466 376.419 463.52 403.349 454.5C430.279 445.48 427.159 433.32 396.349 427.34C365.539 421.36 318.819 423.82 291.889 432.84C264.959 441.86 268.119 454 298.879 460Z" fill="#FFC910"/>
<path d="M396.401 427.29C427.161 433.29 430.271 445.43 403.401 454.45C376.531 463.47 329.701 465.93 298.931 459.95C268.161 453.97 265.071 441.81 291.991 432.79C318.911 423.77 365.641 421.31 396.401 427.29Z" fill="#FFAB01"/>
<path d="M291.939 435.5C318.869 426.5 365.639 424.02 396.399 430C411.709 433 420.159 437.48 421.479 442.37C423.019 436.47 414.479 430.81 396.399 427.29C365.639 421.29 318.869 423.77 291.939 432.79C278.409 437.33 272.469 442.65 273.799 447.58C274.879 443.46 280.859 439.21 291.939 435.5Z" fill="#F99B0F"/>
<path d="M266.82 456.48V477.82C271.92 480.65 279.53 483.16 289.61 485.12C300.577 487.14 311.677 488.357 322.82 488.76V467C311.411 466.619 300.047 465.389 288.82 463.32C279.23 461.48 271.9 459.13 266.82 456.48Z" fill="#F99B0F"/>
<path d="M272.529 426.51C272.309 420.61 272.009 412.74 271.789 406.84C271.939 410.9 272.369 421.84 272.539 426.06C272.529 426.21 272.529 426.36 272.529 426.51Z" fill="#FFC910"/>
<path d="M435.099 398.56C435.366 405.82 435.639 413.08 435.919 420.34C436.139 425.89 428.859 431.74 413.809 436.78C381.299 447.67 324.809 450.65 287.689 443.43C267.749 439.55 257.429 433.52 257.189 427.09L256.359 405.31C256.599 411.74 266.919 417.77 286.869 421.65C323.999 428.87 380.469 425.89 412.999 415C427.999 410 435.309 404.11 435.099 398.56Z" fill="#FFAB01"/>
<path d="M404.589 382.21C441.729 389.43 445.489 404.11 412.979 415C380.469 425.89 323.979 428.87 286.869 421.65C249.759 414.43 245.969 399.75 278.479 388.86C310.989 377.97 367.449 375 404.589 382.21ZM296.999 418.26C327.769 424.26 374.539 421.78 401.459 412.76C428.379 403.74 425.279 391.58 394.519 385.6C363.759 379.62 316.999 382.09 289.999 391.1C262.999 400.11 266.179 412.28 296.939 418.26H296.999Z" fill="#FFC910"/>
<path d="M394.487 385.6C425.247 391.6 428.357 403.74 401.427 412.76C374.497 421.78 327.737 424.24 296.967 418.26C266.197 412.28 263.097 400.12 289.997 391.1C316.897 382.08 363.727 379.62 394.487 385.6Z" fill="#FFAB01"/>
<path d="M289.998 393.81C316.928 384.81 363.698 382.33 394.458 388.31C409.768 391.31 418.218 395.79 419.538 400.68C421.078 394.78 412.538 389.12 394.458 385.6C363.698 379.6 316.928 382.08 289.998 391.1C276.468 395.64 270.528 400.96 271.858 405.89C272.998 401.77 278.998 397.53 289.998 393.81Z" fill="#F99B0F"/>
<path d="M264.898 414.79V436.13C270.008 438.96 277.618 441.47 287.688 443.43C298.659 445.448 309.761 446.668 320.908 447.08V425.33C309.499 424.948 298.135 423.718 286.908 421.65C277.318 419.79 269.998 417.44 264.898 414.79Z" fill="#F99B0F"/>
<path d="M381.869 392.39L373.719 395.12C376.973 396.02 378.503 397.103 378.309 398.37C378.129 399.64 376.219 400.94 372.609 402.3L364.219 400.66C366.219 399.893 367.099 399.143 366.859 398.41C366.599 397.68 365.239 397.07 362.759 396.59C359.955 396.067 357.097 395.892 354.249 396.07C351.503 396.191 348.786 396.678 346.169 397.52C345.469 397.727 344.798 398.019 344.169 398.39C343.739 398.69 343.519 398.99 343.519 399.3C343.479 399.927 344.999 400.733 348.079 401.72C349.929 402.31 351.249 402.79 352.079 403.15C354.939 404.39 356.189 405.65 355.809 406.92C355.429 408.19 353.499 409.4 349.969 410.58C344.998 412.165 339.861 413.172 334.659 413.58C329.443 414.116 324.183 414.059 318.979 413.41L309.189 416.69L301.359 415.17L310.769 412.01C306.649 410.91 304.659 409.61 304.829 408.09C304.999 406.57 307.319 405.09 311.829 403.54L319.919 405.12C317.059 406.173 315.746 407.123 315.979 407.97C316.213 408.817 318.003 409.57 321.349 410.23C324.568 410.839 327.85 411.044 331.119 410.84C334.269 410.695 337.385 410.137 340.389 409.18C341.197 408.906 341.982 408.572 342.739 408.18C343.192 407.975 343.591 407.671 343.909 407.29C344.499 406.37 343.109 405.29 339.719 404.21L338.479 403.79C334.349 402.35 332.179 400.99 331.979 399.73C331.779 398.47 333.539 397.2 337.269 395.95C341.726 394.536 346.335 393.659 350.999 393.34C355.994 392.896 361.021 392.973 365.999 393.57L374.069 390.87L381.869 392.39Z" fill="#F99B0F"/>
<path d="M381.869 389.33L373.719 392.06C376.969 392.96 378.499 394.06 378.309 395.31C378.119 396.56 376.219 397.89 372.609 399.24L364.219 397.61C366.219 396.84 367.119 396.08 366.859 395.36C366.599 394.64 365.239 394.01 362.759 393.53C359.955 393.006 357.097 392.832 354.249 393.01C351.505 393.14 348.788 393.627 346.169 394.46C345.467 394.664 344.795 394.96 344.169 395.34C343.739 395.63 343.519 395.93 343.519 396.24C343.479 396.866 344.999 397.676 348.079 398.67C349.436 399.075 350.771 399.549 352.079 400.09C354.939 401.34 356.189 402.59 355.809 403.86C355.429 405.13 353.499 406.34 349.969 407.52C344.999 409.109 339.862 410.116 334.659 410.52C329.443 411.055 324.183 410.998 318.979 410.35L309.189 413.63L301.359 412.11L310.799 409C306.679 407.9 304.689 406.6 304.859 405.08C305.029 403.56 307.349 402.08 311.859 400.53L319.949 402.1C317.089 403.16 315.779 404.1 316.009 404.97C316.239 405.84 318.009 406.58 321.379 407.23C324.599 407.83 327.88 408.031 331.149 407.83C334.3 407.695 337.418 407.136 340.419 406.17C341.228 405.9 342.014 405.566 342.769 405.17C343.226 404.972 343.627 404.667 343.939 404.28C344.529 403.36 343.139 402.33 339.749 401.2L338.509 400.78C334.379 399.34 332.209 397.98 332.009 396.72C331.809 395.46 333.569 394.19 337.299 392.94C341.746 391.52 346.344 390.627 350.999 390.28C355.994 389.836 361.021 389.913 365.999 390.51L374.069 387.81L381.869 389.33Z" fill="#FFC910"/>
<path d="M282.18 402.86C281.95 396.96 281.66 389.09 281.43 383.19C281.58 387.25 282.01 398.19 282.18 402.41C282.17 402.56 282.17 402.711 282.18 402.86Z" fill="#FFC910"/>
<path d="M444.74 374.91C445.02 382.177 445.297 389.437 445.57 396.69C445.78 402.24 438.5 408.1 423.45 413.14C390.94 424.03 334.45 427 297.34 419.78C277.34 415.91 267.07 409.88 266.83 403.44L266 381.66C266.25 388.1 276.57 394.13 296.51 398C333.66 405.22 390.12 402.25 422.62 391.36C437.68 386.32 445 380.46 444.74 374.91Z" fill="#FFAB01"/>
<path d="M414.23 358.57C451.38 365.79 455.14 380.47 422.62 391.36C390.1 402.25 333.62 405.22 296.51 398C259.4 390.78 255.62 376.1 288.12 365.21C320.62 354.32 377.09 351.35 414.23 358.57ZM306.61 394.57C337.38 400.57 384.15 398.08 411.08 389.07C438.01 380.06 434.89 367.88 404.08 361.9C373.27 355.92 326.55 358.39 299.62 367.41C272.69 376.43 275.81 388.59 306.56 394.57H306.61Z" fill="#FFC910"/>
<path d="M404.128 362C434.888 368 438.008 380.14 411.128 389.17C384.248 398.2 337.428 400.65 306.658 394.67C275.888 388.69 272.798 376.53 299.718 367.51C326.638 358.49 373.368 356 404.128 362Z" fill="#FFAB01"/>
<path d="M299.668 370.17C326.598 361.17 373.368 358.69 404.128 364.66C419.438 367.66 427.898 372.15 429.208 377.04C430.748 371.14 422.208 365.47 404.128 361.95C373.368 355.95 326.598 358.44 299.668 367.46C286.148 371.99 280.208 377.31 281.538 382.25C282.608 378.12 288.588 373.88 299.668 370.17Z" fill="#F99B0F"/>
<path d="M274.551 391.15V412.49C279.651 415.32 287.261 417.83 297.341 419.78C308.31 421.809 319.413 423.029 330.561 423.43V401.69C319.152 401.306 307.787 400.072 296.561 398C287.001 396.15 279.631 393.8 274.551 391.15Z" fill="#F99B0F"/>
<path d="M391.51 368.74L383.36 371.47C386.61 372.37 388.15 373.47 387.95 374.72C387.75 375.97 385.86 377.3 382.26 378.65L373.86 377.02C375.86 376.253 376.74 375.503 376.5 374.77C376.25 374.03 374.88 373.43 372.41 372.94C369.605 372.42 366.747 372.249 363.9 372.43C361.155 372.55 358.438 373.035 355.82 373.87C355.12 374.082 354.449 374.377 353.82 374.75C353.38 375.05 353.16 375.35 353.16 375.65C353.16 376.28 354.64 377.09 357.73 378.08C359.57 378.67 360.89 379.14 361.73 379.5C364.59 380.75 365.84 382 365.47 383.27C365.1 384.54 363.15 385.76 359.63 386.94C354.655 388.524 349.515 389.53 344.31 389.94C339.094 390.475 333.833 390.418 328.63 389.77L318.84 393.05L311 391.56L320.42 388.41C316.29 387.31 314.3 386 314.48 384.49C314.66 382.98 316.96 381.49 321.48 379.94L329.56 381.51C326.7 382.51 325.39 383.51 325.62 384.37C325.85 385.23 327.62 385.98 330.99 386.63C334.208 387.24 337.491 387.442 340.76 387.23C343.911 387.096 347.029 386.538 350.03 385.57C350.841 385.298 351.63 384.964 352.39 384.57C352.844 384.363 353.244 384.055 353.56 383.67C354.147 382.75 352.747 381.723 349.36 380.59L348.13 380.17C343.99 378.73 341.823 377.377 341.63 376.11C341.437 374.843 343.197 373.587 346.91 372.34C351.371 370.9 355.986 369.993 360.66 369.64C365.655 369.199 370.682 369.28 375.66 369.88L383.73 367.17L391.51 368.74Z" fill="#F99B0F"/>
<path d="M391.51 365.68L383.36 368.42C386.61 369.32 388.15 370.42 387.95 371.67C387.75 372.92 385.86 374.24 382.26 375.59L373.86 373.96C375.86 373.194 376.74 372.444 376.5 371.71C376.25 370.97 374.88 370.37 372.41 369.89C369.606 369.362 366.747 369.188 363.9 369.37C361.154 369.489 358.436 369.976 355.82 370.82C355.119 371.025 354.447 371.317 353.82 371.69C353.38 371.99 353.16 372.29 353.16 372.6C353.16 373.23 354.64 374.03 357.73 375.02C359.57 375.61 360.89 376.09 361.73 376.44C364.59 377.694 365.837 378.95 365.47 380.21C365.09 381.48 363.15 382.7 359.63 383.88C354.654 385.459 349.514 386.466 344.31 386.88C339.093 387.413 333.833 387.352 328.63 386.7L318.86 390L311 388.51L320.42 385.35C316.29 384.25 314.3 382.94 314.48 381.43C314.66 379.92 316.96 378.43 321.48 376.88L329.56 378.45C326.7 379.45 325.39 380.45 325.62 381.31C325.85 382.17 327.62 382.92 330.99 383.57C334.208 384.18 337.491 384.382 340.76 384.17C343.911 384.036 347.029 383.478 350.03 382.51C350.841 382.238 351.63 381.904 352.39 381.51C352.841 381.303 353.24 380.999 353.56 380.62C354.15 379.69 352.75 378.67 349.36 377.53L348.13 377.11C343.99 375.67 341.823 374.337 341.63 373.11C341.437 371.884 343.197 370.624 346.91 369.33C351.37 367.889 355.986 366.986 360.66 366.64C365.654 366.191 370.682 366.268 375.66 366.87L383.73 364.16L391.51 365.68Z" fill="#FFC910"/>
<path d="M274.439 374.51C274.219 368.61 273.919 360.74 273.699 354.84C273.849 358.9 274.279 369.84 274.449 374.06C274.439 374.22 274.439 374.36 274.439 374.51Z" fill="#FFC910"/>
<path d="M436.998 346.56C437.278 353.833 437.554 361.093 437.828 368.34C438.038 373.89 430.758 379.75 415.708 384.79C383.198 395.68 326.708 398.65 289.598 391.43C269.598 387.56 259.328 381.53 259.088 375.09L258.258 353.31C258.508 359.75 268.818 365.78 288.768 369.65C325.908 376.87 382.378 373.9 414.878 363.01C429.998 358 437.218 352.11 436.998 346.56Z" fill="#FFAB01"/>
<path d="M406.499 330.22C443.639 337.44 447.409 352.12 414.889 363.01C382.369 373.9 325.889 376.87 288.779 369.65C251.669 362.43 247.879 347.76 280.389 336.87C312.899 325.98 369.359 323 406.499 330.22ZM298.879 366.22C329.649 372.22 376.419 369.73 403.349 360.72C430.279 351.71 427.159 339.54 396.349 333.55C365.539 327.56 318.819 330.04 291.889 339.06C264.959 348.08 268.069 360.24 298.829 366.22H298.879Z" fill="#FFC910"/>
<path d="M396.401 333.6C427.161 339.6 430.271 351.74 403.401 360.77C376.531 369.8 329.701 372.25 298.931 366.27C268.161 360.29 265.071 348.13 291.991 339.11C318.911 330.09 365.641 327.63 396.401 333.6Z" fill="#FFAB01"/>
<path d="M291.939 341.82C318.869 332.82 365.639 330.34 396.399 336.31C411.709 339.31 420.159 343.8 421.479 348.69C423.019 342.79 414.479 337.13 396.399 333.6C365.639 327.6 318.869 330.09 291.939 339.11C278.409 343.64 272.469 348.97 273.799 353.9C274.879 349.77 280.859 345.53 291.939 341.82Z" fill="#F99B0F"/>
<path d="M266.82 362.8V384.14C271.92 386.97 279.53 389.48 289.61 391.43C300.576 393.458 311.676 394.678 322.82 395.08V373.34C311.411 372.955 300.046 371.722 288.82 369.65C279.23 367.8 271.9 365.45 266.82 362.8Z" fill="#F99B0F"/>
<path d="M385.398 453.54L406.878 448.12C427.988 442.79 452.118 458.65 464.068 487.49C477.728 520.49 470.318 557.85 447.518 571.05L426.048 576.47C448.838 563.27 456.248 525.86 442.588 492.91C430.638 464.07 406.518 448.21 385.398 453.54Z" fill="#FFC910"/>
<path d="M438.699 574.65L417.219 580.07C420.314 579.283 423.285 578.071 426.049 576.47L447.519 571.05C444.761 572.655 441.792 573.867 438.699 574.65Z" fill="#FFC910"/>
<path d="M385.398 453.54L406.878 448.12C403.785 448.903 400.816 450.115 398.058 451.72L376.578 457.14C379.337 455.536 382.305 454.325 385.398 453.54Z" fill="#FFAB01"/>
<path d="M438.698 574.65L417.218 580.07C396.108 585.4 371.998 569.53 359.998 540.7C346.338 507.7 353.748 470.34 376.548 457.14L398.028 451.72C375.228 464.92 367.818 502.33 381.478 535.28C393.458 564.12 417.578 580 438.698 574.65Z" fill="#FFAB01"/>
<path d="M441.998 587.76L420.528 593.18C395.038 599.61 365.908 580.47 351.528 545.66C335.038 505.88 343.988 460.71 371.528 444.78L392.998 439.36C365.478 455.3 356.528 500.46 372.998 540.24C387.378 575.05 416.498 594.2 441.998 587.76Z" fill="#F99B0F"/>
<path d="M392.931 439.36C420.461 423.42 456.141 442.75 472.631 482.53C489.121 522.31 480.181 567.47 452.631 583.41C425.081 599.35 389.441 580 373.001 540.24C356.561 500.48 365.411 455.3 392.931 439.36ZM447.521 571.05C470.321 557.85 477.731 520.44 464.071 487.49C450.411 454.54 420.861 438.49 398.071 451.72C375.281 464.95 367.861 502.34 381.521 535.29C395.181 568.24 424.731 584.29 447.521 571.05Z" fill="#FFC910"/>
<path d="M398.059 451.621C420.849 438.431 450.409 454.441 464.059 487.391C477.709 520.341 470.309 557.751 447.509 570.951C424.709 584.151 395.159 568.141 381.509 535.181C367.859 502.221 375.259 464.821 398.059 451.621Z" fill="#FFAB01"/>
<path d="M382.111 440.43L403.581 435C399.846 435.949 396.262 437.413 392.931 439.35L371.461 444.77C374.791 442.833 378.375 441.372 382.111 440.43Z" fill="#EE8F01"/>
<path d="M398.06 451.72C394.182 454 390.725 456.929 387.84 460.38C390.454 457.501 393.489 455.033 396.84 453.06C419.64 439.86 449.2 455.87 462.84 488.82C474.18 516.2 470.98 546.64 456.5 563.73C471.97 546.92 475.66 515.59 464.01 487.49C450.41 454.54 420.85 438.53 398.06 451.72Z" fill="#F99B0F"/>
<path d="M420.518 593.16L441.988 587.74C429.538 590.89 416.228 587.91 404.178 580L384.328 586.47C395.998 593.59 408.628 596.16 420.518 593.16Z" fill="#EE8F01"/>
<path d="M167.43 515.152L170.14 532.692C172.97 550.912 156.14 571.212 125.14 583.592C84.0103 599.962 33.4203 596.262 12.1403 575.312C6.94032 570.192 3.9703 564.512 3.0603 558.622L0.320312 541.152C1.23031 547.052 4.2003 552.732 9.4003 557.852C30.6703 578.792 81.2603 582.502 122.4 566.122C153.46 553.702 170.25 533.412 167.43 515.152Z" fill="#F99B0F"/>
<path d="M158.34 498.492C179.62 519.442 163.52 549.702 122.39 566.082C81.2597 582.462 30.6697 578.752 9.38965 557.812C-11.8903 536.872 4.21965 506.602 45.3897 490.222C86.5597 473.842 137.07 477.542 158.34 498.492ZM22.1896 552.712C39.8096 570.062 81.7096 573.132 115.77 559.572C149.83 546.012 163.18 520.932 145.55 503.572C127.92 486.212 86.0396 483.162 51.9696 496.732C17.8996 510.302 4.56964 535.362 22.1896 552.732V552.712Z" fill="#FFC910"/>
<path d="M145.551 503.582C127.941 486.242 86.0413 483.172 51.9713 496.742C17.9013 510.312 4.57126 535.372 22.1913 552.742C39.8113 570.112 81.7112 573.162 115.771 559.602C149.831 546.042 163.191 520.932 145.551 503.582Z" fill="#FFAB01"/>
<path d="M51.4022 500.442C85.4722 486.872 127.402 489.942 144.992 507.282C150.742 512.942 153.172 519.432 152.682 526.062C154.532 518.162 152.372 510.292 145.552 503.582C127.942 486.242 86.0422 483.172 51.9722 496.742C29.0222 505.882 15.5022 520.232 14.4922 533.942C17.4322 521.402 30.5122 508.752 51.4022 500.442Z" fill="#F99B0F"/>
<path d="M159.282 540.803C151.672 550.483 139.102 559.433 122.392 566.083C81.3317 582.433 30.8517 578.773 9.51172 557.913L10.4317 573.583C10.9717 574.183 11.5317 574.773 12.1217 575.353C33.3917 596.353 83.9817 600.003 125.122 583.633C140.722 577.413 152.712 569.203 160.442 560.263L159.282 540.803Z" fill="#FFAB01"/>
<path d="M392.09 161.89L405.57 173.45C419.57 185.45 420.01 211.79 404.45 241.4C383.86 280.59 343.02 310.68 313.24 308.59C305.96 308.09 300.01 305.7 295.48 301.82L282 290.26C286.52 294.14 292.47 296.53 299.75 297.03C329.54 299.11 370.38 269.03 390.97 229.84C406.53 200.23 406.09 173.89 392.09 161.89Z" fill="#FFAB01"/>
<path d="M374.329 155.11C404.119 157.19 411.569 190.65 390.979 229.84C370.389 269.03 329.549 299.11 299.759 297C269.969 294.89 262.529 261.47 283.119 222.28C303.709 183.09 344.549 153 374.329 155.11ZM306.169 284.85C330.839 286.57 364.659 261.65 381.719 229.19C398.779 196.73 392.599 169 367.929 167.3C343.259 165.6 309.439 190.49 292.379 223C275.319 255.51 281.499 283.17 306.169 284.89V284.85Z" fill="#FFC910"/>
<path d="M367.93 167.3C343.27 165.57 309.44 190.49 292.38 222.96C275.32 255.43 281.5 283.13 306.17 284.85C330.84 286.57 364.66 261.65 381.72 229.19C398.78 196.73 392.6 169 367.93 167.3Z" fill="#FFAB01"/>
<path d="M402.32 183.36L415.86 195.59C414.98 186.2 411.49 178.53 405.57 173.45L392.09 161.89C397.88 166.85 401.34 174.27 402.32 183.36Z" fill="#F99B0F"/>
<path d="M303.208 297.12C302.048 297.12 300.898 297.12 299.758 297.03C292.478 296.53 286.528 294.14 282.008 290.26L295.478 301.82C300.008 305.7 305.958 308.09 313.238 308.59C314.158 308.66 315.088 308.69 316.028 308.69L303.208 297.12Z" fill="#F99B0F"/>
</svg>
