<svg width="496" height="77" viewBox="0 0 496 77" fill="none" xmlns="http://www.w3.org/2000/svg">
<path d="M154.299 9.59043H178.399V15.8904H161.199V22.5904H176.299V28.8904H161.199V41.1904H154.199L154.299 9.59043ZM183.399 8.19043H190.599V14.2904H183.399V8.19043ZM183.599 16.9904H190.499V41.2904H183.599V16.9904ZM196.899 16.9904H203.799V20.3904C205.399 18.3904 207.399 16.4904 210.899 16.4904C216.099 16.4904 219.099 19.8904 219.099 25.4904V41.1904H212.299V27.6904C212.299 24.3904 210.799 22.7904 208.099 22.7904C205.499 22.7904 203.799 24.4904 203.799 27.6904V41.1904H196.899V16.9904ZM223.699 34.2904C223.699 28.8904 227.699 26.4904 233.499 26.4904C235.899 26.4904 237.699 26.8904 239.399 27.4904V27.0904C239.399 24.1904 237.599 22.6904 234.199 22.6904C231.599 22.6904 229.699 23.1904 227.499 23.9904L225.799 18.6904C228.499 17.4904 231.099 16.7904 235.199 16.7904C238.999 16.7904 241.699 17.7904 243.399 19.4904C245.199 21.2904 245.999 23.9904 245.999 27.1904V41.2904H239.299V38.6904C237.599 40.5904 235.299 41.7904 231.999 41.7904C227.399 41.6904 223.699 39.0904 223.699 34.2904ZM239.499 32.6904V31.4904C238.299 30.9904 236.799 30.5904 235.099 30.5904C232.199 30.5904 230.299 31.7904 230.299 33.9904V34.0904C230.299 35.9904 231.799 36.9904 234.099 36.9904C237.299 36.9904 239.499 35.1904 239.499 32.6904ZM251.899 16.9904H258.799V20.3904C260.399 18.3904 262.399 16.4904 265.899 16.4904C271.099 16.4904 274.099 19.8904 274.099 25.4904V41.1904H267.299V27.6904C267.299 24.3904 265.799 22.7904 263.099 22.7904C260.499 22.7904 258.799 24.4904 258.799 27.6904V41.1904H251.899V16.9904ZM278.999 29.2904C278.999 22.2904 284.299 16.5904 291.699 16.5904C296.299 16.5904 299.099 18.0904 301.399 20.6904L297.199 25.1904C295.699 23.5904 294.099 22.4904 291.699 22.4904C288.299 22.4904 285.799 25.4904 285.799 29.0904V29.1904C285.799 32.8904 288.199 35.8904 291.999 35.8904C294.299 35.8904 295.899 34.8904 297.599 33.2904L301.599 37.3904C299.199 39.9904 296.499 41.7904 291.699 41.7904C284.299 41.7904 278.999 36.1904 278.999 29.2904ZM304.099 29.2904C304.099 22.2904 308.999 16.5904 316.099 16.5904C324.199 16.5904 327.899 22.8904 327.899 29.7904C327.899 30.2904 327.899 30.9904 327.799 31.5904H310.899C311.599 34.6904 313.799 36.3904 316.799 36.3904C319.099 36.3904 320.799 35.6904 322.699 33.8904L326.599 37.3904C324.299 40.1904 321.099 41.8904 316.699 41.8904C309.499 41.7904 304.099 36.6904 304.099 29.2904ZM321.299 27.1904C320.899 24.0904 319.099 21.9904 316.199 21.9904C313.299 21.9904 311.499 23.9904 310.899 27.1904H321.299ZM331.199 38.0904L334.099 33.5904C336.699 35.4904 339.499 36.4904 341.799 36.4904C343.799 36.4904 344.699 35.7904 344.699 34.6904V34.5904C344.699 33.0904 342.299 32.5904 339.699 31.7904C336.299 30.7904 332.499 29.1904 332.499 24.4904V24.3904C332.499 19.4904 336.499 16.6904 341.399 16.6904C344.499 16.6904 347.799 17.6904 350.499 19.4904L347.899 24.2904C345.499 22.8904 343.099 21.9904 341.299 21.9904C339.599 21.9904 338.799 22.6904 338.799 23.6904V23.7904C338.799 25.1904 341.099 25.7904 343.699 26.6904C347.099 27.7904 350.999 29.4904 350.999 33.8904V33.9904C350.999 39.3904 346.999 41.7904 341.699 41.7904C338.199 41.6904 334.399 40.5904 331.199 38.0904ZM355.799 25.4904C355.799 16.6904 362.399 8.99043 371.999 8.99043C381.599 8.99043 388.099 16.5904 388.099 25.2904V25.3904C388.099 34.0904 381.499 41.7904 371.899 41.7904C362.299 41.7904 355.799 34.2904 355.799 25.4904ZM384.399 25.4904C384.399 18.1904 379.099 12.2904 371.899 12.2904C364.699 12.2904 359.499 18.0904 359.499 25.2904V25.3904C359.499 32.5904 364.799 38.4904 371.999 38.4904C379.299 38.4904 384.399 32.6904 384.399 25.4904ZM395.099 17.8904H398.599V21.9904C400.099 19.4904 402.599 17.3904 406.599 17.3904C412.299 17.3904 415.599 21.1904 415.599 26.7904V41.2904H412.099V27.5904C412.099 23.2904 409.699 20.4904 405.599 20.4904C401.599 20.4904 398.599 23.3904 398.599 27.7904V41.1904H395.099V17.8904ZM423.299 8.19043H426.799V41.2904H423.299V8.19043ZM434.999 8.89043H438.999V12.6904H434.999V8.89043ZM435.199 17.8904H438.699V41.2904H435.199V17.8904ZM446.799 17.8904H450.299V21.9904C451.799 19.4904 454.299 17.3904 458.299 17.3904C463.999 17.3904 467.299 21.1904 467.299 26.7904V41.2904H463.799V27.5904C463.799 23.2904 461.399 20.4904 457.299 20.4904C453.299 20.4904 450.299 23.3904 450.299 27.7904V41.1904H446.799V17.8904ZM473.299 29.5904C473.299 22.7904 478.099 17.2904 484.499 17.2904C491.399 17.2904 495.399 22.7904 495.399 29.6904V30.7904H476.799C477.299 35.8904 480.899 38.6904 484.999 38.6904C488.199 38.6904 490.499 37.3904 492.399 35.3904L494.599 37.2904C492.199 39.8904 489.399 41.6904 484.999 41.6904C478.499 41.7904 473.299 36.8904 473.299 29.5904ZM491.899 28.2904C491.499 23.9904 489.099 20.2904 484.399 20.2904C480.299 20.2904 477.199 23.6904 476.799 28.2904H491.899Z" fill="#CCCCCC"/>
<path d="M490.699 63.5898L489.699 64.8898Z" fill="#CCCCCC"/>
<path d="M32.4 76.6902C24.5 76.6902 13.5 74.7902 6.2 65.5902C0.400001 58.1902 0 49.8902 0 47.5902C0 39.5902 3 32.5902 8.9 26.5902L9 26.4902C18.2 17.6902 30 19.4902 37.7 22.8902C38.8 16.7902 42.3 7.39019 53.1 2.69019C64.8 -2.30981 73.3 0.590189 78.5 3.89019C84 7.49019 86.7 12.2902 86.8 12.4902C87.7 14.1902 87.1 16.2902 85.5 17.2902C83.8 18.1902 81.7 17.5902 80.7 15.9902C80.7 15.9902 78.6 12.2902 74.4 9.69019C69.1 6.39019 62.8 6.19019 55.8 9.19019C43.6 14.4902 44.1 28.2902 44.1 28.4902L44.4 35.4902L38.6 31.4902C38.6 31.4902 34.7 28.8902 29.7 27.6902C23.4 26.2902 18.1 27.5902 13.8 31.5902C9.2 36.1902 7 41.3902 7 47.5902C7 51.2902 8.2 56.7902 11.8 61.2902C16.2 66.8902 23.2 69.7902 32.4 69.7902C50.1 69.7902 56.9 57.5902 62.9 46.6902C63.5 45.6902 64 44.6902 64.6 43.6902C71.4 31.7902 79.7 20.1902 99.6 19.9902C120.3 19.9902 131.5 34.5902 131.5 48.2902C131.5 69.3902 113.1 76.1902 104.1 76.1902C95.9 76.1902 87.9 70.7902 87.6 70.5902C86 69.4902 85.6 67.2902 86.7 65.6902C87.8 64.0902 90 63.6902 91.6 64.7902C91.7 64.7902 98.2 69.1902 104.2 69.1902C108.5 69.1902 124.6 65.6902 124.6 48.2902C124.6 42.7902 122.3 37.5902 118.2 33.6902C113.6 29.2902 107.2 26.9902 99.8 26.9902C83.6 27.1902 77.1 36.1902 70.9 47.0902C70.4 47.9902 69.8 48.9902 69.3 49.9902C62.7 61.2902 54.2 76.6902 32.4 76.6902Z" fill="#CCCCCC"/>
<path d="M153.699 61.8904H160.299C162.099 61.8904 163.599 62.3904 164.499 63.3904C165.299 64.1904 165.699 65.2904 165.699 66.5904C165.699 68.9904 164.299 70.4904 162.199 71.0904L166.199 76.6904H163.099L159.499 71.5904H156.299V76.6904H153.699V61.8904ZM160.099 69.1904C161.899 69.1904 163.099 68.1904 163.099 66.6904C163.099 65.0904 161.999 64.2904 160.099 64.2904H156.299V69.1904H160.099ZM172.699 61.8904H183.599V64.1904H175.299V67.9904H182.699V70.2904H175.299V74.1904H183.699V76.4904H172.699V61.8904ZM189.199 61.8904H192.099L196.499 73.1904L200.899 61.8904H203.699L197.599 76.6904H195.299L189.199 61.8904ZM210.199 61.8904H212.799V76.5904H210.199V61.8904ZM220.499 61.8904H231.399V64.1904H223.099V67.9904H230.499V70.2904H223.099V74.1904H231.499V76.4904H220.499V61.8904ZM237.199 61.8904H239.999L243.499 72.7904L247.099 61.8904H249.299L252.899 72.7904L256.399 61.8904H259.099L253.999 76.6904H251.799L248.199 66.0904L244.599 76.6904H242.299L237.199 61.8904ZM264.099 74.4904L265.699 72.6904C267.099 73.8904 268.499 74.5904 270.299 74.5904C271.899 74.5904 272.899 73.7904 272.899 72.7904C272.899 71.6904 272.299 71.1904 269.599 70.5904C266.499 69.7904 264.699 68.8904 264.699 66.1904C264.699 63.6904 266.799 61.8904 269.699 61.8904C271.799 61.8904 273.499 62.5904 274.999 63.6904L273.599 65.6904C272.299 64.6904 270.999 64.1904 269.599 64.1904C268.099 64.1904 267.199 64.9904 267.199 65.8904C267.199 66.9904 267.899 67.4904 270.699 68.1904C273.799 68.9904 275.399 70.0904 275.399 72.4904C275.399 75.2904 273.199 76.8904 270.199 76.8904C267.999 76.7904 265.899 75.9904 264.099 74.4904ZM292.399 61.8904H303.299V64.2904H294.899V68.2904H302.299V70.6904H294.899V76.6904H292.299V61.8904H292.399ZM309.199 69.2904C309.199 65.0904 312.399 61.6904 316.899 61.6904C321.399 61.6904 324.599 65.0904 324.599 69.2904C324.599 73.3904 321.399 76.8904 316.899 76.8904C312.399 76.8904 309.199 73.3904 309.199 69.2904ZM321.899 69.2904C321.899 66.3904 319.799 63.9904 316.899 63.9904C313.999 63.9904 311.899 66.2904 311.899 69.1904C311.899 72.0904 313.999 74.3904 316.899 74.3904C319.799 74.3904 321.899 72.0904 321.899 69.2904ZM331.499 61.8904H338.099C339.899 61.8904 341.399 62.3904 342.299 63.3904C343.099 64.1904 343.499 65.2904 343.499 66.5904C343.499 68.9904 342.099 70.4904 339.999 71.0904L343.999 76.6904H340.899L337.299 71.5904H334.099V76.6904H331.499V61.8904ZM337.799 69.1904C339.599 69.1904 340.799 68.1904 340.799 66.6904C340.799 65.0904 339.699 64.2904 337.799 64.2904H333.999V69.1904H337.799ZM360.499 61.8904H367.099C368.799 61.8904 370.099 62.3904 370.899 63.1904C371.599 63.8904 371.899 64.5904 371.899 65.5904C371.899 67.3904 370.899 68.2904 369.799 68.8904C371.499 69.4904 372.699 70.4904 372.699 72.4904C372.699 75.0904 370.499 76.4904 367.299 76.4904H360.499V61.8904ZM369.399 66.0904C369.399 64.8904 368.499 64.1904 366.799 64.1904H363.099V68.0904H366.599C368.199 68.0904 369.399 67.3904 369.399 66.0904ZM367.199 70.2904H363.099V74.2904H367.399C369.199 74.2904 370.199 73.5904 370.199 72.2904C370.199 70.9904 369.199 70.2904 367.199 70.2904ZM379.199 70.3904V61.8904H381.799V70.2904C381.799 72.9904 383.199 74.4904 385.499 74.4904C387.799 74.4904 389.199 73.0904 389.199 70.3904V61.8904H391.799V70.1904C391.799 74.5904 389.299 76.7904 385.499 76.7904C381.699 76.7904 379.199 74.5904 379.199 70.3904ZM398.099 74.4904L399.699 72.6904C401.099 73.8904 402.499 74.5904 404.299 74.5904C405.899 74.5904 406.899 73.7904 406.899 72.7904C406.899 71.6904 406.299 71.1904 403.599 70.5904C400.499 69.7904 398.699 68.8904 398.699 66.1904C398.699 63.6904 400.799 61.8904 403.699 61.8904C405.799 61.8904 407.499 62.5904 408.999 63.6904L407.599 65.6904C406.299 64.6904 404.999 64.1904 403.599 64.1904C402.099 64.1904 401.199 64.9904 401.199 65.8904C401.199 66.9904 401.899 67.4904 404.699 68.1904C407.799 68.9904 409.399 70.0904 409.399 72.4904C409.399 75.2904 407.199 76.8904 404.199 76.8904C401.999 76.7904 399.899 75.9904 398.099 74.4904ZM416.499 61.8904H419.099V76.5904H416.499V61.8904ZM426.799 61.8904H429.199L437.099 72.0904V61.8904H439.599V76.5904H437.399L429.299 66.0904V76.5904H426.799V61.8904ZM447.199 61.8904H458.099V64.1904H449.799V67.9904H457.199V70.2904H449.799V74.1904H458.199V76.4904H447.199V61.8904ZM463.999 74.4904L465.599 72.6904C466.999 73.8904 468.399 74.5904 470.199 74.5904C471.799 74.5904 472.799 73.7904 472.799 72.7904C472.799 71.6904 472.199 71.1904 469.499 70.5904C466.399 69.7904 464.599 68.8904 464.599 66.1904C464.599 63.6904 466.699 61.8904 469.599 61.8904C471.699 61.8904 473.399 62.5904 474.899 63.6904L473.499 65.6904C472.199 64.6904 470.899 64.1904 469.499 64.1904C467.999 64.1904 467.099 64.9904 467.099 65.8904C467.099 66.9904 467.799 67.4904 470.599 68.1904C473.699 68.9904 475.299 70.0904 475.299 72.4904C475.299 75.2904 473.099 76.8904 470.099 76.8904C467.899 76.7904 465.799 75.9904 463.999 74.4904ZM480.999 74.4904L482.599 72.6904C483.999 73.8904 485.399 74.5904 487.199 74.5904C488.799 74.5904 489.799 73.7904 489.799 72.7904C489.799 71.6904 489.199 71.1904 486.499 70.5904C483.399 69.7904 481.599 68.8904 481.599 66.1904C481.599 63.6904 483.699 61.8904 486.599 61.8904C488.699 61.8904 490.399 62.5904 491.899 63.6904L490.499 65.6904C489.199 64.6904 487.899 64.1904 486.499 64.1904C484.999 64.1904 484.099 64.9904 484.099 65.8904C484.099 66.9904 484.799 67.4904 487.599 68.1904C490.699 68.9904 492.299 70.0904 492.299 72.4904C492.299 75.2904 490.099 76.8904 487.099 76.8904C484.899 76.7904 482.799 75.9904 480.999 74.4904Z" fill="#CCCCCC"/>
</svg>
