<svg width="1000" height="896" viewBox="0 0 1000 896" fill="none" xmlns="http://www.w3.org/2000/svg">
<path d="M0 80.6452C0 36.1061 36.1061 0 80.6452 0H919.355C963.894 0 1000 36.1061 1000 80.6452V814.516C1000 859.055 963.894 895.161 919.355 895.161H80.6451C36.1061 895.161 0 859.055 0 814.516V80.6452Z" fill="#F5E5E1"/>
<path d="M504.029 141.855C470 141.855 437.365 155.373 413.303 179.435C389.241 203.498 375.723 236.132 375.723 270.161C375.723 304.19 389.241 336.826 413.303 360.888C437.365 384.95 470 398.468 504.029 398.468C538.058 398.468 570.693 384.95 594.755 360.888C618.818 336.826 632.335 304.19 632.335 270.161C632.335 236.132 618.818 203.498 594.755 179.435C570.693 155.373 538.058 141.855 504.029 141.855Z" fill="#E6EDB7"/>
<path d="M375.728 190.403C373.889 190.403 372.125 191.134 370.824 192.435C369.524 193.735 368.793 195.499 368.793 197.339C368.793 199.178 369.524 200.942 370.824 202.243C372.125 203.544 373.889 204.274 375.728 204.274C377.568 204.274 379.332 203.544 380.633 202.243C381.933 200.942 382.664 199.178 382.664 197.339C382.664 195.499 381.933 193.735 380.633 192.435C379.332 191.134 377.568 190.403 375.728 190.403Z" fill="#88AE45"/>
<path d="M597.659 138.387C596.739 138.387 595.858 138.752 595.207 139.403C594.557 140.053 594.191 140.935 594.191 141.855C594.191 142.774 594.557 143.656 595.207 144.307C595.858 144.957 596.739 145.322 597.659 145.322C598.579 145.322 599.461 144.957 600.111 144.307C600.762 143.656 601.127 142.774 601.127 141.855C601.127 140.935 600.762 140.053 600.111 139.403C599.461 138.752 598.579 138.387 597.659 138.387ZM618.466 134.919C614.787 134.919 611.258 136.381 608.658 138.982C606.056 141.583 604.595 145.111 604.595 148.79C604.595 152.469 606.056 155.997 608.658 158.598C611.258 161.2 614.787 162.661 618.466 162.661C622.145 162.661 625.672 161.2 628.274 158.598C630.875 155.997 632.337 152.469 632.337 148.79C632.337 145.111 630.875 141.583 628.274 138.982C625.672 136.381 622.145 134.919 618.466 134.919Z" fill="#F1BC19"/>
<path d="M632.346 173.065C630.506 173.065 628.742 173.795 627.442 175.096C626.141 176.397 625.41 178.16 625.41 180C625.41 181.839 626.141 183.604 627.442 184.904C628.742 186.205 630.506 186.935 632.346 186.935C634.185 186.935 635.949 186.205 637.25 184.904C638.55 183.604 639.281 181.839 639.281 180C639.281 178.16 638.55 176.397 637.25 175.096C635.949 173.795 634.185 173.065 632.346 173.065Z" fill="#88AE45"/>
<path d="M611.535 353.387C609.696 353.387 607.931 354.118 606.631 355.419C605.33 356.719 604.6 358.483 604.6 360.323C604.6 362.162 605.33 363.926 606.631 365.227C607.931 366.527 609.696 367.258 611.535 367.258C613.375 367.258 615.138 366.527 616.439 365.227C617.74 363.926 618.471 362.162 618.471 360.323C618.471 358.483 617.74 356.719 616.439 355.419C615.138 354.118 613.375 353.387 611.535 353.387ZM382.664 301.371C378.985 301.371 375.457 302.832 372.856 305.434C370.254 308.035 368.793 311.563 368.793 315.242C368.793 318.921 370.254 322.449 372.856 325.05C375.457 327.652 378.985 329.113 382.664 329.113C386.343 329.113 389.871 327.652 392.472 325.05C395.073 322.449 396.535 318.921 396.535 315.242C396.535 311.563 395.073 308.035 392.472 305.434C389.871 302.832 386.343 301.371 382.664 301.371Z" fill="#FBCD59"/>
<path d="M417.342 391.532C415.502 391.532 413.738 392.263 412.438 393.564C411.137 394.864 410.406 396.628 410.406 398.468C410.406 400.307 411.137 402.071 412.438 403.372C413.738 404.673 415.502 405.403 417.342 405.403C419.181 405.403 420.946 404.673 422.246 403.372C423.546 402.071 424.277 400.307 424.277 398.468C424.277 396.628 423.546 394.864 422.246 393.564C420.946 392.263 419.181 391.532 417.342 391.532Z" fill="#88AE45"/>
<path d="M394.79 273.629C392.491 273.629 390.286 274.543 388.66 276.169C387.034 277.794 386.121 279.999 386.121 282.298C386.121 284.598 387.034 286.802 388.66 288.428C390.286 290.054 392.491 290.968 394.79 290.968C397.09 290.968 399.295 290.054 400.921 288.428C402.546 286.802 403.46 284.598 403.46 282.298C403.46 279.999 402.546 277.794 400.921 276.169C399.295 274.543 397.09 273.629 394.79 273.629Z" fill="white"/>
<path d="M403.479 325.645C402.56 325.645 401.678 326.01 401.027 326.66C400.377 327.311 400.012 328.194 400.012 329.113C400.012 330.032 400.377 330.914 401.027 331.565C401.678 332.215 402.56 332.581 403.479 332.581C404.399 332.581 405.281 332.215 405.932 331.565C406.582 330.914 406.947 330.032 406.947 329.113C406.947 328.194 406.582 327.311 405.932 326.66C405.281 326.01 404.399 325.645 403.479 325.645Z" fill="#F1BC19"/>
<path d="M608.054 211.21C607.134 211.21 606.251 211.575 605.601 212.225C604.951 212.876 604.586 213.758 604.586 214.677C604.586 215.597 604.951 216.479 605.601 217.13C606.251 217.78 607.134 218.145 608.054 218.145C608.973 218.145 609.855 217.78 610.505 217.13C611.155 216.479 611.521 215.597 611.521 214.677C611.521 213.758 611.155 212.876 610.505 212.225C609.855 211.575 608.973 211.21 608.054 211.21Z" fill="white"/>
<path d="M504.042 187.081C482.007 187.081 460.875 195.834 445.295 211.414C429.714 226.995 420.961 248.127 420.961 270.161C420.961 292.195 429.714 313.327 445.295 328.908C460.875 344.489 482.007 353.241 504.042 353.241C526.075 353.241 547.207 344.489 562.788 328.908C578.368 313.327 587.121 292.195 587.121 270.161C587.121 248.127 578.368 226.995 562.788 211.414C547.207 195.834 526.075 187.081 504.042 187.081Z" fill="#88AE45"/>
<path d="M504.033 188.323C549.159 188.323 585.872 225.035 585.872 270.161C585.872 315.287 549.159 352 504.033 352C458.908 352 422.195 315.287 422.195 270.161C422.195 225.035 458.908 188.323 504.033 188.323ZM504.033 183.468C456.154 183.468 417.34 222.282 417.34 270.161C417.34 318.04 456.154 356.855 504.033 356.855C551.912 356.855 590.727 318.04 590.727 270.161C590.727 222.282 551.912 183.468 504.033 183.468Z" fill="#472B29"/>
<path d="M504.019 202.54C495.139 202.54 486.346 204.289 478.142 207.688C469.938 211.085 462.483 216.067 456.204 222.346C449.925 228.625 444.944 236.08 441.546 244.284C438.148 252.488 436.398 261.281 436.398 270.161C436.398 279.041 438.148 287.835 441.546 296.039C444.944 304.243 449.925 311.698 456.204 317.977C462.483 324.256 469.938 329.236 478.142 332.635C486.346 336.033 495.139 337.782 504.019 337.782C512.899 337.782 521.693 336.033 529.897 332.635C538.101 329.236 545.556 324.256 551.835 317.977C558.114 311.698 563.094 304.243 566.493 296.039C569.891 287.835 571.64 279.041 571.64 270.161C571.64 261.281 569.891 252.488 566.493 244.284C563.094 236.08 558.114 228.625 551.835 222.346C545.556 216.067 538.101 211.085 529.897 207.688C521.693 204.289 512.899 202.54 504.019 202.54Z" fill="#FDFCEF"/>
<path d="M572.552 259.598C572.403 258.652 571.519 258.003 570.573 258.149C569.626 258.295 568.974 259.179 569.127 260.129C572.355 280.852 565.472 302.027 550.716 316.771C524.996 342.474 483.148 342.474 457.427 316.771C431.707 291.072 431.707 249.251 457.427 223.548C483.148 197.848 524.996 197.848 550.716 223.548C553.414 226.246 555.894 229.242 558.297 232.706C558.844 233.494 559.923 233.691 560.714 233.144C561.494 232.606 561.695 231.52 561.151 230.73C558.627 227.092 556.015 223.939 553.168 221.096C526.095 194.044 482.044 194.041 454.968 221.096C427.896 248.152 427.896 292.171 454.968 319.227C482.041 346.278 526.092 346.281 553.168 319.227C568.707 303.702 575.955 281.41 572.552 259.598Z" fill="#472B29"/>
<path d="M564.945 245.18C565.309 246.068 566.325 246.49 567.209 246.127C568.09 245.766 568.52 244.753 568.153 243.865C567.06 241.21 566.04 239.028 564.941 237.01C564.483 236.167 563.429 235.859 562.586 236.316C562.437 236.396 562.303 236.5 562.188 236.615C561.657 237.145 561.515 237.977 561.89 238.671C562.933 240.575 563.904 242.645 564.945 245.18Z" fill="#472B29"/>
<path d="M472.81 264.526C471.306 264.526 469.891 265.112 468.827 266.177C467.762 267.241 467.176 268.656 467.176 270.161C467.176 271.666 467.762 273.081 468.827 274.146L493.101 298.42C494.165 299.485 495.58 300.07 497.085 300.07V301.371L497.193 300.07C498.735 300.039 500.206 299.373 501.239 298.247L539.385 256.634C540.401 255.524 540.924 254.085 540.862 252.58C540.796 251.075 540.148 249.691 539.041 248.672C537.928 247.656 536.517 247.111 534.987 247.194C533.485 247.26 532.098 247.905 531.083 249.014L496.911 286.29L476.798 266.177C475.731 265.112 474.316 264.526 472.81 264.526Z" fill="#88AE45"/>
<path d="M535.236 248.488C536.322 248.488 537.362 248.894 538.167 249.629C539.02 250.412 539.515 251.477 539.568 252.635C539.616 253.794 539.214 254.9 538.431 255.752L500.286 297.365C499.491 298.232 498.361 298.746 497.091 298.77C495.933 298.77 494.845 298.319 494.026 297.501L469.752 273.227C468.933 272.408 468.482 271.319 468.482 270.161C468.482 269.003 468.933 267.915 469.755 267.096C470.57 266.277 471.659 265.827 472.817 265.827C473.975 265.827 475.065 266.277 475.882 267.096L495.035 286.248L496.957 288.169L498.79 286.169L532.043 249.892C532.872 248.987 534.006 248.488 535.236 248.488ZM535.236 245.887C533.361 245.887 531.491 246.643 530.125 248.138L496.873 284.41L477.72 265.258C476.368 263.902 474.593 263.226 472.817 263.226C471.042 263.226 469.266 263.902 467.914 265.258C465.206 267.966 465.206 272.356 467.914 275.065L492.188 299.339C493.489 300.643 495.253 301.371 497.091 301.371C497.144 301.371 497.192 301.371 497.24 301.371C499.131 301.329 500.924 300.518 502.203 299.124L540.348 257.511C542.939 254.688 542.744 250.298 539.922 247.711C538.59 246.49 536.911 245.887 535.236 245.887Z" fill="#472B29"/>
<path d="M216.639 541.597C218.069 541.597 219.349 542.161 220.478 543.29C221.682 544.344 222.284 545.699 222.284 547.355C222.284 547.957 222.171 548.559 221.946 549.161C221.795 549.688 221.532 550.253 221.155 550.855L195.3 587.436L197.107 580.774V615.21C197.107 616.866 196.542 618.258 195.413 619.387C194.284 620.441 193.005 620.968 191.575 620.968C189.994 620.968 188.639 620.441 187.51 619.387C186.456 618.258 185.929 616.866 185.929 615.21V581.678L186.72 584.952L161.768 551.645C161.166 550.817 160.752 550.065 160.526 549.387C160.3 548.635 160.188 547.919 160.188 547.242C160.188 545.586 160.827 544.231 162.107 543.178C163.462 542.124 164.817 541.597 166.171 541.597C167.978 541.597 169.521 542.463 170.8 544.194L193.381 575.129L190.671 574.79L211.897 544.307C213.177 542.5 214.757 541.597 216.639 541.597Z" fill="#1D1D1D"/>
<path d="M284.265 591.274C284.265 597.296 282.947 602.64 280.313 607.307C277.679 611.898 274.103 615.511 269.587 618.145C265.071 620.78 259.99 622.097 254.345 622.097C248.7 622.097 243.619 620.78 239.103 618.145C234.587 615.511 230.974 611.898 228.265 607.307C225.63 602.64 224.313 597.296 224.313 591.274C224.313 585.178 225.63 579.833 228.265 575.242C230.974 570.575 234.587 566.925 239.103 564.29C243.619 561.581 248.7 560.226 254.345 560.226C259.99 560.226 265.071 561.581 269.587 564.29C274.103 566.925 277.679 570.575 280.313 575.242C282.947 579.833 284.265 585.178 284.265 591.274ZM272.974 591.274C272.974 587.135 272.146 583.559 270.49 580.549C268.835 577.463 266.576 575.054 263.716 573.323C260.931 571.516 257.808 570.613 254.345 570.613C250.883 570.613 247.722 571.516 244.861 573.323C242.001 575.054 239.743 577.463 238.087 580.549C236.431 583.559 235.603 587.135 235.603 591.274C235.603 595.264 236.431 598.801 238.087 601.887C239.743 604.973 242.001 607.382 244.861 609.113C247.722 610.844 250.883 611.71 254.345 611.71C257.808 611.71 260.931 610.844 263.716 609.113C266.576 607.382 268.835 604.973 270.49 601.887C272.146 598.801 272.974 595.264 272.974 591.274Z" fill="#1D1D1D"/>
<path d="M341.302 561.581C342.883 561.581 344.2 562.145 345.254 563.274C346.383 564.328 346.947 565.683 346.947 567.339V597.032C346.947 604.86 344.764 610.995 340.399 615.436C336.033 619.801 329.861 621.984 321.883 621.984C313.979 621.984 307.845 619.801 303.479 615.436C299.189 610.995 297.044 604.86 297.044 597.032V567.339C297.044 565.683 297.571 564.328 298.624 563.274C299.678 562.145 301.033 561.581 302.689 561.581C304.27 561.581 305.587 562.145 306.641 563.274C307.77 564.328 308.334 565.683 308.334 567.339V597.032C308.334 601.925 309.463 605.575 311.721 607.984C314.055 610.393 317.442 611.597 321.883 611.597C326.399 611.597 329.823 610.393 332.157 607.984C334.49 605.575 335.657 601.925 335.657 597.032V567.339C335.657 565.683 336.184 564.328 337.237 563.274C338.291 562.145 339.646 561.581 341.302 561.581Z" fill="#1D1D1D"/>
<path d="M368.292 620.968C366.636 620.968 365.281 620.441 364.227 619.387C363.174 618.258 362.647 616.866 362.647 615.21V567.339C362.647 565.683 363.174 564.328 364.227 563.274C365.281 562.145 366.636 561.581 368.292 561.581C369.873 561.581 371.19 562.145 372.244 563.274C373.373 564.328 373.937 565.683 373.937 567.339V579.984L372.808 575.129C373.41 573.022 374.313 571.065 375.518 569.258C376.797 567.452 378.303 565.871 380.034 564.516C381.765 563.161 383.684 562.108 385.792 561.355C387.975 560.602 390.233 560.226 392.566 560.226C394.523 560.226 396.217 560.753 397.647 561.807C399.077 562.86 399.792 564.178 399.792 565.758C399.792 567.79 399.265 569.296 398.211 570.274C397.158 571.178 395.991 571.629 394.711 571.629C393.582 571.629 392.491 571.403 391.437 570.952C390.383 570.425 389.141 570.161 387.711 570.161C386.131 570.161 384.512 570.575 382.856 571.403C381.201 572.231 379.695 573.473 378.34 575.129C376.986 576.71 375.894 578.592 375.066 580.774C374.313 582.957 373.937 585.403 373.937 588.113V615.21C373.937 616.866 373.373 618.258 372.244 619.387C371.19 620.441 369.873 620.968 368.292 620.968Z" fill="#1D1D1D"/>
<path d="M498.163 591.274C498.163 597.296 496.846 602.64 494.212 607.307C491.577 611.898 488.002 615.511 483.486 618.145C478.97 620.78 473.889 622.097 468.244 622.097C462.599 622.097 457.518 620.78 453.002 618.145C448.486 615.511 444.873 611.898 442.163 607.307C439.529 602.64 438.212 597.296 438.212 591.274C438.212 585.178 439.529 579.833 442.163 575.242C444.873 570.575 448.486 566.925 453.002 564.29C457.518 561.581 462.599 560.226 468.244 560.226C473.889 560.226 478.97 561.581 483.486 564.29C488.002 566.925 491.577 570.575 494.212 575.242C496.846 579.833 498.163 585.178 498.163 591.274ZM486.873 591.274C486.873 587.135 486.045 583.559 484.389 580.549C482.733 577.463 480.475 575.054 477.615 573.323C474.83 571.516 471.706 570.613 468.244 570.613C464.782 570.613 461.62 571.516 458.76 573.323C455.9 575.054 453.642 577.463 451.986 580.549C450.33 583.559 449.502 587.135 449.502 591.274C449.502 595.264 450.33 598.801 451.986 601.887C453.642 604.973 455.9 607.382 458.76 609.113C461.62 610.844 464.782 611.71 468.244 611.71C471.706 611.71 474.83 610.844 477.615 609.113C480.475 607.382 482.733 604.973 484.389 601.887C486.045 598.801 486.873 595.264 486.873 591.274Z" fill="#1D1D1D"/>
<path d="M516.588 620.968C514.932 620.968 513.577 620.441 512.523 619.387C511.469 618.258 510.943 616.866 510.943 615.21V567.339C510.943 565.683 511.469 564.328 512.523 563.274C513.577 562.145 514.932 561.581 516.588 561.581C518.168 561.581 519.486 562.145 520.539 563.274C521.668 564.328 522.233 565.683 522.233 567.339V579.984L521.104 575.129C521.706 573.022 522.609 571.065 523.814 569.258C525.093 567.452 526.598 565.871 528.33 564.516C530.061 563.161 531.98 562.108 534.088 561.355C536.27 560.602 538.529 560.226 540.862 560.226C542.819 560.226 544.512 560.753 545.943 561.807C547.373 562.86 548.088 564.178 548.088 565.758C548.088 567.79 547.561 569.296 546.507 570.274C545.453 571.178 544.287 571.629 543.007 571.629C541.878 571.629 540.787 571.403 539.733 570.952C538.679 570.425 537.437 570.161 536.007 570.161C534.426 570.161 532.808 570.575 531.152 571.403C529.496 572.231 527.991 573.473 526.636 575.129C525.281 576.71 524.19 578.592 523.362 580.774C522.609 582.957 522.233 585.403 522.233 588.113V615.21C522.233 616.866 521.668 618.258 520.539 619.387C519.486 620.441 518.168 620.968 516.588 620.968Z" fill="#1D1D1D"/>
<path d="M604.258 537.419C605.914 537.419 607.269 537.946 608.322 539C609.376 540.054 609.903 541.446 609.903 543.178V615.21C609.903 616.866 609.376 618.258 608.322 619.387C607.269 620.441 605.914 620.968 604.258 620.968C602.677 620.968 601.322 620.441 600.193 619.387C599.14 618.258 598.613 616.866 598.613 615.21V607.081L600.984 607.194C600.984 608.549 600.419 610.092 599.29 611.823C598.236 613.479 596.769 615.097 594.887 616.678C593.005 618.258 590.785 619.575 588.226 620.629C585.667 621.608 582.919 622.097 579.984 622.097C574.79 622.097 570.124 620.78 565.984 618.145C561.844 615.436 558.57 611.785 556.161 607.194C553.753 602.527 552.548 597.183 552.548 591.161C552.548 585.14 553.753 579.833 556.161 575.242C558.57 570.575 561.806 566.925 565.871 564.29C570.011 561.581 574.602 560.226 579.645 560.226C582.806 560.226 585.742 560.753 588.451 561.807C591.236 562.86 593.645 564.215 595.677 565.871C597.71 567.527 599.29 569.296 600.419 571.178C601.548 572.984 602.113 574.715 602.113 576.371L598.613 576.71V543.178C598.613 541.522 599.14 540.167 600.193 539.113C601.322 537.984 602.677 537.419 604.258 537.419ZM581.226 611.71C584.839 611.71 587.962 610.807 590.597 609C593.306 607.194 595.414 604.747 596.919 601.661C598.425 598.575 599.177 595.075 599.177 591.161C599.177 587.247 598.425 583.747 596.919 580.661C595.414 577.575 593.306 575.129 590.597 573.323C587.887 571.516 584.763 570.613 581.226 570.613C577.763 570.613 574.677 571.516 571.968 573.323C569.333 575.129 567.226 577.575 565.645 580.661C564.14 583.747 563.387 587.247 563.387 591.161C563.387 595.075 564.14 598.575 565.645 601.661C567.226 604.747 569.333 607.194 571.968 609C574.677 610.807 577.763 611.71 581.226 611.71Z" fill="#1D1D1D"/>
<path d="M653.381 622.097C647.134 622.097 641.715 620.817 637.123 618.258C632.532 615.624 628.957 612.049 626.398 607.532C623.914 602.941 622.672 597.71 622.672 591.839C622.672 585.215 623.989 579.57 626.623 574.903C629.333 570.161 632.833 566.549 637.123 564.065C641.414 561.506 645.967 560.226 650.785 560.226C654.473 560.226 657.973 560.979 661.285 562.484C664.596 563.914 667.532 565.946 670.091 568.581C672.726 571.14 674.795 574.188 676.301 577.726C677.806 581.188 678.596 584.989 678.672 589.129C678.596 590.635 677.994 591.876 676.865 592.855C675.736 593.833 674.419 594.323 672.914 594.323H628.994L626.285 584.726H668.736L666.591 586.758V583.936C666.441 581.301 665.575 579.006 663.994 577.049C662.414 575.016 660.457 573.473 658.123 572.419C655.79 571.29 653.344 570.726 650.785 570.726C648.527 570.726 646.344 571.102 644.236 571.855C642.204 572.532 640.36 573.661 638.704 575.242C637.123 576.823 635.844 578.93 634.865 581.565C633.962 584.124 633.51 587.323 633.51 591.161C633.51 595.301 634.376 598.914 636.107 602C637.838 605.086 640.172 607.495 643.107 609.226C646.043 610.882 649.279 611.71 652.817 611.71C655.602 611.71 657.898 611.446 659.704 610.919C661.51 610.317 663.016 609.602 664.22 608.774C665.424 607.946 666.478 607.156 667.381 606.403C668.51 605.726 669.64 605.387 670.769 605.387C672.123 605.387 673.252 605.876 674.156 606.855C675.059 607.758 675.51 608.85 675.51 610.129C675.51 611.785 674.683 613.29 673.027 614.645C670.994 616.602 668.172 618.333 664.559 619.839C661.021 621.344 657.295 622.097 653.381 622.097Z" fill="#1D1D1D"/>
<path d="M697.079 620.968C695.423 620.968 694.068 620.441 693.014 619.387C691.96 618.258 691.433 616.866 691.433 615.21V567.339C691.433 565.683 691.96 564.328 693.014 563.274C694.068 562.145 695.423 561.581 697.079 561.581C698.659 561.581 699.976 562.145 701.03 563.274C702.159 564.328 702.724 565.683 702.724 567.339V579.984L701.595 575.129C702.197 573.022 703.1 571.065 704.304 569.258C705.584 567.452 707.089 565.871 708.82 564.516C710.552 563.161 712.471 562.108 714.578 561.355C716.761 560.602 719.019 560.226 721.353 560.226C723.31 560.226 725.003 560.753 726.433 561.807C727.863 562.86 728.578 564.178 728.578 565.758C728.578 567.79 728.052 569.296 726.998 570.274C725.944 571.178 724.777 571.629 723.498 571.629C722.369 571.629 721.277 571.403 720.224 570.952C719.17 570.425 717.928 570.161 716.498 570.161C714.917 570.161 713.299 570.575 711.643 571.403C709.987 572.231 708.482 573.473 707.127 575.129C705.772 576.71 704.681 578.592 703.853 580.774C703.1 582.957 702.724 585.403 702.724 588.113V615.21C702.724 616.866 702.159 618.258 701.03 619.387C699.976 620.441 698.659 620.968 697.079 620.968Z" fill="#1D1D1D"/>
<path d="M780.66 615.21C780.66 616.866 780.133 618.258 779.079 619.387C778.025 620.441 776.67 620.968 775.014 620.968C773.434 620.968 772.079 620.441 770.95 619.387C769.896 618.258 769.369 616.866 769.369 615.21V566.887C769.369 565.231 769.896 563.876 770.95 562.823C772.079 561.694 773.434 561.129 775.014 561.129C776.67 561.129 778.025 561.694 779.079 562.823C780.133 563.876 780.66 565.231 780.66 566.887V615.21ZM774.901 553.678C772.719 553.678 771.138 553.301 770.16 552.549C769.181 551.721 768.692 550.366 768.692 548.484V546.678C768.692 544.796 769.219 543.479 770.272 542.726C771.326 541.973 772.907 541.597 775.014 541.597C777.272 541.597 778.891 542.011 779.869 542.839C780.848 543.592 781.337 544.871 781.337 546.678V548.484C781.337 550.441 780.81 551.796 779.756 552.549C778.778 553.301 777.16 553.678 774.901 553.678Z" fill="#1D1D1D"/>
<path d="M792.347 611.71C791.669 610.656 791.368 609.452 791.444 608.097C791.519 606.667 792.309 605.463 793.814 604.484C794.868 603.807 795.96 603.543 797.089 603.694C798.293 603.769 799.422 604.333 800.476 605.387C802.583 607.721 804.917 609.565 807.476 610.919C810.11 612.274 813.272 612.952 816.96 612.952C818.465 612.876 820.008 612.651 821.589 612.274C823.169 611.823 824.524 611.07 825.653 610.016C826.782 608.887 827.347 607.269 827.347 605.161C827.347 603.28 826.745 601.774 825.54 600.645C824.336 599.516 822.755 598.613 820.798 597.936C818.841 597.183 816.734 596.506 814.476 595.903C812.067 595.226 809.621 594.473 807.137 593.645C804.728 592.817 802.546 591.764 800.589 590.484C798.632 589.129 797.013 587.398 795.734 585.29C794.53 583.183 793.927 580.586 793.927 577.5C793.927 573.963 794.906 570.914 796.863 568.355C798.895 565.796 801.492 563.801 804.653 562.371C807.89 560.941 811.39 560.226 815.153 560.226C817.336 560.226 819.632 560.527 822.04 561.129C824.449 561.656 826.782 562.522 829.04 563.726C831.298 564.93 833.255 566.511 834.911 568.468C835.664 569.446 836.078 570.613 836.153 571.968C836.304 573.323 835.702 574.527 834.347 575.581C833.444 576.333 832.352 576.672 831.073 576.597C829.793 576.522 828.739 576.108 827.911 575.355C826.481 573.549 824.637 572.156 822.379 571.178C820.121 570.124 817.562 569.597 814.702 569.597C813.272 569.597 811.766 569.823 810.186 570.274C808.68 570.651 807.401 571.366 806.347 572.419C805.293 573.473 804.766 575.016 804.766 577.049C804.766 578.93 805.368 580.436 806.573 581.565C807.852 582.694 809.508 583.635 811.54 584.387C813.573 585.14 815.793 585.817 818.202 586.419C820.535 587.022 822.831 587.737 825.089 588.565C827.422 589.393 829.492 590.484 831.298 591.839C833.18 593.118 834.685 594.812 835.814 596.919C837.019 598.952 837.621 601.549 837.621 604.71C837.621 608.398 836.53 611.559 834.347 614.194C832.239 616.753 829.53 618.71 826.218 620.065C822.981 621.419 819.556 622.097 815.944 622.097C811.653 622.097 807.363 621.344 803.073 619.839C798.858 618.258 795.282 615.549 792.347 611.71Z" fill="#1D1D1D"/>
<path d="M287.216 705.726C292.484 705.726 297.151 707.043 301.216 709.678C305.355 712.312 308.63 715.925 311.038 720.516C313.447 725.032 314.651 730.301 314.651 736.323C314.651 742.344 313.447 747.688 311.038 752.355C308.63 756.946 305.393 760.559 301.328 763.194C297.264 765.828 292.673 767.145 287.554 767.145C284.694 767.145 281.984 766.694 279.425 765.79C276.866 764.887 274.608 763.721 272.651 762.29C270.694 760.785 269.076 759.204 267.796 757.549C266.592 755.893 265.839 754.35 265.538 752.919L268.586 751.452V782.952C268.586 784.608 268.022 785.963 266.893 787.016C265.839 788.145 264.522 788.71 262.941 788.71C261.285 788.71 259.931 788.145 258.877 787.016C257.823 785.963 257.296 784.608 257.296 782.952V712.274C257.296 710.694 257.823 709.339 258.877 708.21C259.931 707.081 261.285 706.516 262.941 706.516C264.522 706.516 265.839 707.081 266.893 708.21C268.022 709.339 268.586 710.694 268.586 712.274V720.065L266.78 719.049C267.006 717.618 267.721 716.151 268.925 714.645C270.13 713.065 271.635 711.597 273.441 710.242C275.323 708.887 277.431 707.796 279.764 706.968C282.173 706.14 284.656 705.726 287.216 705.726ZM285.974 716.113C282.361 716.113 279.199 717.016 276.49 718.823C273.855 720.554 271.785 722.925 270.28 725.936C268.775 728.946 268.022 732.409 268.022 736.323C268.022 740.161 268.775 743.661 270.28 746.823C271.785 749.909 273.855 752.355 276.49 754.161C279.199 755.893 282.361 756.758 285.974 756.758C289.511 756.758 292.597 755.893 295.232 754.161C297.866 752.355 299.936 749.909 301.441 746.823C303.022 743.661 303.812 740.161 303.812 736.323C303.812 732.484 303.022 729.059 301.441 726.049C299.936 722.962 297.866 720.554 295.232 718.823C292.597 717.016 289.511 716.113 285.974 716.113Z" fill="#1D1D1D"/>
<path d="M333.065 766.129C331.409 766.129 330.054 765.602 329 764.549C327.947 763.42 327.42 762.027 327.42 760.371V712.5C327.42 710.844 327.947 709.489 329 708.436C330.054 707.307 331.409 706.742 333.065 706.742C334.645 706.742 335.963 707.307 337.016 708.436C338.145 709.489 338.71 710.844 338.71 712.5V725.145L337.581 720.29C338.183 718.183 339.086 716.226 340.291 714.419C341.57 712.613 343.076 711.032 344.807 709.678C346.538 708.323 348.457 707.269 350.565 706.516C352.748 705.764 355.006 705.387 357.339 705.387C359.296 705.387 360.99 705.914 362.42 706.968C363.85 708.022 364.565 709.339 364.565 710.919C364.565 712.952 364.038 714.457 362.984 715.436C361.93 716.339 360.764 716.79 359.484 716.79C358.355 716.79 357.264 716.565 356.21 716.113C355.156 715.586 353.914 715.323 352.484 715.323C350.904 715.323 349.285 715.737 347.629 716.565C345.973 717.393 344.468 718.635 343.113 720.29C341.758 721.871 340.667 723.753 339.839 725.936C339.086 728.118 338.71 730.565 338.71 733.274V760.371C338.71 762.027 338.145 763.42 337.016 764.549C335.963 765.602 334.645 766.129 333.065 766.129Z" fill="#1D1D1D"/>
<path d="M399.735 767.258C393.488 767.258 388.068 765.979 383.477 763.419C378.886 760.785 375.31 757.21 372.751 752.694C370.267 748.102 369.025 742.871 369.025 737C369.025 730.376 370.343 724.731 372.977 720.065C375.687 715.323 379.187 711.71 383.477 709.226C387.767 706.667 392.321 705.387 397.138 705.387C400.826 705.387 404.326 706.14 407.638 707.645C410.95 709.075 413.886 711.108 416.445 713.742C419.079 716.301 421.149 719.35 422.654 722.887C424.16 726.35 424.95 730.151 425.025 734.29C424.95 735.796 424.348 737.038 423.219 738.016C422.09 738.995 420.773 739.484 419.267 739.484H375.348L372.638 729.887H415.09L412.945 731.919V729.097C412.794 726.463 411.929 724.167 410.348 722.21C408.767 720.178 406.81 718.635 404.477 717.581C402.144 716.452 399.697 715.887 397.138 715.887C394.88 715.887 392.697 716.264 390.59 717.016C388.558 717.694 386.714 718.823 385.058 720.403C383.477 721.984 382.197 724.092 381.219 726.726C380.316 729.285 379.864 732.484 379.864 736.323C379.864 740.463 380.73 744.075 382.461 747.161C384.192 750.247 386.525 752.656 389.461 754.387C392.396 756.043 395.633 756.871 399.171 756.871C401.956 756.871 404.251 756.608 406.058 756.081C407.864 755.479 409.369 754.764 410.574 753.936C411.778 753.108 412.832 752.317 413.735 751.565C414.864 750.887 415.993 750.549 417.122 750.549C418.477 750.549 419.606 751.038 420.509 752.016C421.412 752.919 421.864 754.011 421.864 755.29C421.864 756.946 421.036 758.452 419.38 759.807C417.348 761.764 414.525 763.495 410.913 765C407.375 766.506 403.649 767.258 399.735 767.258Z" fill="#1D1D1D"/>
<path d="M467.706 705.726C472.975 705.726 477.642 707.043 481.706 709.678C485.846 712.312 489.12 715.925 491.529 720.516C493.938 725.032 495.142 730.301 495.142 736.323C495.142 742.344 493.938 747.688 491.529 752.355C489.12 756.946 485.884 760.559 481.819 763.194C477.755 765.828 473.163 767.145 468.045 767.145C465.185 767.145 462.475 766.694 459.916 765.79C457.357 764.887 455.099 763.721 453.142 762.29C451.185 760.785 449.567 759.204 448.287 757.549C447.083 755.893 446.33 754.35 446.029 752.919L449.077 751.452V782.952C449.077 784.608 448.513 785.963 447.384 787.016C446.33 788.145 445.013 788.71 443.432 788.71C441.776 788.71 440.421 788.145 439.368 787.016C438.314 785.963 437.787 784.608 437.787 782.952V712.274C437.787 710.694 438.314 709.339 439.368 708.21C440.421 707.081 441.776 706.516 443.432 706.516C445.013 706.516 446.33 707.081 447.384 708.21C448.513 709.339 449.077 710.694 449.077 712.274V720.065L447.271 719.049C447.497 717.618 448.212 716.151 449.416 714.645C450.62 713.065 452.126 711.597 453.932 710.242C455.814 708.887 457.921 707.796 460.255 706.968C462.663 706.14 465.147 705.726 467.706 705.726ZM466.464 716.113C462.852 716.113 459.69 717.016 456.981 718.823C454.346 720.554 452.276 722.925 450.771 725.936C449.265 728.946 448.513 732.409 448.513 736.323C448.513 740.161 449.265 743.661 450.771 746.823C452.276 749.909 454.346 752.355 456.981 754.161C459.69 755.893 462.852 756.758 466.464 756.758C470.002 756.758 473.088 755.893 475.722 754.161C478.357 752.355 480.427 749.909 481.932 746.823C483.513 743.661 484.303 740.161 484.303 736.323C484.303 732.484 483.513 729.059 481.932 726.049C480.427 722.962 478.357 720.554 475.722 718.823C473.088 717.016 470.002 716.113 466.464 716.113Z" fill="#1D1D1D"/>
<path d="M556.572 705.839C558.228 705.839 559.583 706.403 560.636 707.532C561.69 708.586 562.217 709.941 562.217 711.597V760.371C562.217 762.027 561.69 763.42 560.636 764.549C559.583 765.602 558.228 766.129 556.572 766.129C554.991 766.129 553.636 765.602 552.507 764.549C551.454 763.42 550.927 762.027 550.927 760.371V752.242L553.298 752.581C553.298 753.936 552.733 755.441 551.604 757.097C550.55 758.753 549.083 760.371 547.201 761.952C545.319 763.457 543.099 764.737 540.54 765.79C537.98 766.769 535.233 767.258 532.298 767.258C527.104 767.258 522.437 765.941 518.298 763.307C514.158 760.597 510.884 756.909 508.475 752.242C506.066 747.575 504.862 742.269 504.862 736.323C504.862 730.226 506.066 724.882 508.475 720.29C510.884 715.624 514.12 711.973 518.185 709.339C522.324 706.704 526.916 705.387 531.959 705.387C535.195 705.387 538.169 705.914 540.878 706.968C543.663 708.022 546.072 709.376 548.104 711.032C550.136 712.688 551.679 714.457 552.733 716.339C553.862 718.145 554.427 719.876 554.427 721.532L550.927 721.871V711.597C550.927 710.016 551.454 708.661 552.507 707.532C553.636 706.403 554.991 705.839 556.572 705.839ZM533.54 756.871C537.077 756.871 540.201 755.968 542.91 754.161C545.62 752.355 547.728 749.909 549.233 746.823C550.738 743.661 551.491 740.161 551.491 736.323C551.491 732.409 550.738 728.909 549.233 725.823C547.728 722.737 545.62 720.29 542.91 718.484C540.201 716.678 537.077 715.774 533.54 715.774C530.077 715.774 526.991 716.678 524.281 718.484C521.647 720.29 519.54 722.737 517.959 725.823C516.454 728.909 515.701 732.409 515.701 736.323C515.701 740.161 516.454 743.661 517.959 746.823C519.54 749.909 521.647 752.355 524.281 754.161C526.991 755.968 530.077 756.871 533.54 756.871Z" fill="#1D1D1D"/>
<path d="M583.679 766.129C582.023 766.129 580.668 765.602 579.615 764.549C578.561 763.42 578.034 762.027 578.034 760.371V712.5C578.034 710.844 578.561 709.489 579.615 708.436C580.668 707.307 582.023 706.742 583.679 706.742C585.26 706.742 586.577 707.307 587.631 708.436C588.76 709.489 589.324 710.844 589.324 712.5V725.145L588.195 720.29C588.797 718.183 589.701 716.226 590.905 714.419C592.185 712.613 593.69 711.032 595.421 709.678C597.152 708.323 599.072 707.269 601.179 706.516C603.362 705.764 605.62 705.387 607.953 705.387C609.91 705.387 611.604 705.914 613.034 706.968C614.464 708.022 615.179 709.339 615.179 710.919C615.179 712.952 614.652 714.457 613.598 715.436C612.545 716.339 611.378 716.79 610.098 716.79C608.969 716.79 607.878 716.565 606.824 716.113C605.771 715.586 604.529 715.323 603.098 715.323C601.518 715.323 599.9 715.737 598.244 716.565C596.588 717.393 595.082 718.635 593.728 720.29C592.373 721.871 591.281 723.753 590.453 725.936C589.701 728.118 589.324 730.565 589.324 733.274V760.371C589.324 762.027 588.76 763.42 587.631 764.549C586.577 765.602 585.26 766.129 583.679 766.129Z" fill="#1D1D1D"/>
<path d="M650.349 767.258C644.102 767.258 638.683 765.979 634.091 763.419C629.5 760.785 625.925 757.21 623.366 752.694C620.882 748.102 619.64 742.871 619.64 737C619.64 730.376 620.957 724.731 623.591 720.065C626.301 715.323 629.801 711.71 634.091 709.226C638.382 706.667 642.935 705.387 647.753 705.387C651.441 705.387 654.941 706.14 658.253 707.645C661.564 709.075 664.5 711.108 667.059 713.742C669.693 716.301 671.763 719.35 673.269 722.887C674.774 726.35 675.564 730.151 675.64 734.29C675.564 735.796 674.962 737.038 673.833 738.016C672.704 738.995 671.387 739.484 669.882 739.484H625.962L623.253 729.887H665.704L663.559 731.919V729.097C663.408 726.463 662.543 724.167 660.962 722.21C659.382 720.178 657.425 718.635 655.091 717.581C652.758 716.452 650.312 715.887 647.753 715.887C645.495 715.887 643.312 716.264 641.204 717.016C639.172 717.694 637.328 718.823 635.672 720.403C634.091 721.984 632.812 724.092 631.833 726.726C630.93 729.285 630.478 732.484 630.478 736.323C630.478 740.463 631.344 744.075 633.075 747.161C634.806 750.247 637.14 752.656 640.075 754.387C643.011 756.043 646.247 756.871 649.785 756.871C652.57 756.871 654.865 756.608 656.672 756.081C658.478 755.479 659.984 754.764 661.188 753.936C662.392 753.108 663.446 752.317 664.349 751.565C665.478 750.887 666.607 750.549 667.736 750.549C669.091 750.549 670.22 751.038 671.124 752.016C672.027 752.919 672.478 754.011 672.478 755.29C672.478 756.946 671.65 758.452 669.995 759.807C667.962 761.764 665.14 763.495 661.527 765C657.989 766.506 654.263 767.258 650.349 767.258Z" fill="#1D1D1D"/>
<path d="M737.063 682.581C738.718 682.581 740.073 683.108 741.127 684.161C742.181 685.215 742.708 686.608 742.708 688.339V760.371C742.708 762.027 742.181 763.42 741.127 764.549C740.073 765.602 738.718 766.129 737.063 766.129C735.482 766.129 734.127 765.602 732.998 764.549C731.944 763.42 731.417 762.027 731.417 760.371V752.242L733.788 752.355C733.788 753.71 733.224 755.253 732.095 756.984C731.041 758.64 729.573 760.258 727.692 761.839C725.81 763.42 723.589 764.737 721.03 765.79C718.471 766.769 715.724 767.258 712.788 767.258C707.595 767.258 702.928 765.941 698.788 763.307C694.649 760.597 691.374 756.946 688.966 752.355C686.557 747.688 685.353 742.344 685.353 736.323C685.353 730.301 686.557 724.995 688.966 720.403C691.374 715.737 694.611 712.086 698.675 709.452C702.815 706.742 707.407 705.387 712.45 705.387C715.611 705.387 718.546 705.914 721.256 706.968C724.041 708.022 726.45 709.376 728.482 711.032C730.514 712.688 732.095 714.457 733.224 716.339C734.353 718.145 734.917 719.876 734.917 721.532L731.417 721.871V688.339C731.417 686.683 731.944 685.328 732.998 684.274C734.127 683.145 735.482 682.581 737.063 682.581ZM714.03 756.871C717.643 756.871 720.767 755.968 723.401 754.161C726.111 752.355 728.219 749.909 729.724 746.823C731.229 743.737 731.982 740.237 731.982 736.323C731.982 732.409 731.229 728.909 729.724 725.823C728.219 722.737 726.111 720.29 723.401 718.484C720.692 716.678 717.568 715.774 714.03 715.774C710.568 715.774 707.482 716.678 704.772 718.484C702.138 720.29 700.03 722.737 698.45 725.823C696.944 728.909 696.192 732.409 696.192 736.323C696.192 740.237 696.944 743.737 698.45 746.823C700.03 749.909 702.138 752.355 704.772 754.161C707.482 755.968 710.568 756.871 714.03 756.871Z" fill="#1D1D1D"/>
</svg>
