<svg width="250" height="286" viewBox="0 0 250 286" fill="none" xmlns="http://www.w3.org/2000/svg">
<path d="M173.557 101.01C161.08 87.9338 151.197 71.0638 144.709 51.8982C139.718 37.1246 132.531 9.8736 132.531 5.5813C132.531 -1.10668 120.552 -3.80176 120.552 9.17496C120.552 15.863 116.16 54.6933 102.784 77.9516C90.1069 100.112 85.2156 105.802 76.3316 109.596C71.2407 111.692 72.0392 113.288 79.2263 115.783C96.9944 121.972 104.98 136.846 121.051 193.544C130.434 226.485 136.224 225.487 141.115 190.05C145.907 154.813 163.675 114.785 176.352 110.393C180.545 108.996 180.245 108.097 173.557 101.01ZM131.632 164.696L129.736 173.68C128.937 171.583 118.556 127.562 100.289 115.783C95.2976 112.589 94.3992 111.291 97.294 111.291C106.577 111.291 121.051 86.6359 125.443 62.8785C127.54 51.998 127.839 51.5987 130.434 58.3865C135.825 72.8606 144.709 86.536 156.887 99.2131L164.873 107.599C163.775 108.897 141.315 117.68 131.632 164.696Z" fill="#B3D6B9"/>
<path d="M245.526 218.599C229.854 205.822 218.374 183.164 218.374 164.497C218.374 156.312 207.494 146.928 203.401 170.186C198.41 199.034 195.116 206.92 183.836 218.2C174.553 227.383 174.453 226.784 186.132 229.979C197.013 232.973 205.098 247.349 210.389 273.202C213.683 289.273 225.561 289.971 226.06 273.601C226.759 250.542 232.05 237.665 244.028 230.079C251.615 225.187 251.814 223.69 245.526 218.599ZM233.547 223.891C230.053 225.088 220.57 233.373 218.374 236.966C215.38 242.057 215.479 242.057 211.986 236.467C208.991 231.676 201.904 226.385 197.212 225.487C193.619 224.688 193.718 224.49 199.508 218.8C202.303 216.105 206.196 210.613 208.192 206.621C212.684 197.936 212.086 198.037 216.378 204.925C219.672 210.115 225.062 215.804 231.85 221.194C233.747 222.492 234.346 223.591 233.547 223.891Z" fill="#B3D6B9"/>
<path d="M54.5303 143.693C42.0406 133.514 32.8921 115.463 32.8921 100.592C32.8921 94.0712 24.221 86.5951 20.9593 105.124C16.9817 128.107 14.3565 134.389 5.3671 143.375C-2.03124 150.691 -2.11079 150.214 7.1968 152.759C15.868 155.145 22.3117 166.597 26.528 187.193C29.1532 199.997 38.6199 200.553 39.0176 187.511C39.5745 169.141 43.7908 158.882 53.337 152.838C59.383 148.942 59.5421 147.749 54.5303 143.693ZM44.9841 147.909C42.1997 148.863 34.6423 155.463 32.8921 158.326C30.5056 162.381 30.5851 162.381 27.8008 157.928C25.4142 154.111 19.766 149.896 16.0271 149.18C13.1632 148.544 13.2428 148.386 17.8568 143.853C20.0843 141.706 23.1868 137.331 24.7778 134.15C28.3577 127.232 27.8804 127.312 31.3011 132.799C33.9263 136.934 38.2221 141.467 43.6317 145.761C45.1432 146.795 45.6205 147.67 44.9841 147.909Z" fill="#B3D6B9"/>
</svg>
